<?xml version="1.0" encoding="iso-8859-1"?>
<!-- Generator: Adobe Illustrator 19.0.0, SVG Export Plug-In . SVG Version: 6.00 Build 0)  -->
<svg version="1.1" id="Layer_1" xmlns="http://www.w3.org/2000/svg" xmlns:xlink="http://www.w3.org/1999/xlink" x="0px" y="0px"
	 viewBox="0 0 512 512" style="enable-background:new 0 0 512 512;" xml:space="preserve">
<g>
	<g>
		<g>
			<circle cx="256" cy="114.888" r="27.042"/>
			<path d="M455.925,312.26h-134.04l10.034-111.12C410.701,132.22,362.488,0,256,0c-106.598,0-154.527,132.351-75.918,201.139
				l10.035,111.12H56.075c-10.345,0-18.732,8.387-18.732,18.732V421.3c0,10.345,8.387,18.732,18.732,18.732h40.594v53.237
				c0,10.345,8.387,18.732,18.732,18.732h281.198c10.345,0,18.732-8.387,18.732-18.732v-53.236h40.594
				c10.345,0,18.732-8.387,18.732-18.732v-90.309C474.656,320.647,466.27,312.26,455.925,312.26z M256,37.463
				c74.049,0,105.707,94.526,46.666,139.21c-4.207,3.186-6.877,7.996-7.352,13.252L284.267,312.26h-56.535l-11.048-122.336
				c-0.475-5.255-3.144-10.066-7.352-13.251C150.453,132.112,181.865,37.463,256,37.463z M377.867,474.537H134.133v-34.504h243.734
				V474.537z M437.193,402.569c-13.362,0-348.421,0-362.386,0v-52.846c2.132,0,358.994,0,362.386,0V402.569z"/>
		</g>
	</g>
</g>
<g>
</g>
<g>
</g>
<g>
</g>
<g>
</g>
<g>
</g>
<g>
</g>
<g>
</g>
<g>
</g>
<g>
</g>
<g>
</g>
<g>
</g>
<g>
</g>
<g>
</g>
<g>
</g>
<g>
</g>
</svg>
