<svg width="32px" height="32px" viewBox="0 0 32 32" id="Lager_111" data-name="Lager 111" xmlns="http://www.w3.org/2000/svg">
  <rect id="Rectangle_56" data-name="Rectangle 56" width="4" height="8" transform="translate(8 4)" fill="#161615"/>
  <rect id="Rectangle_57" data-name="Rectangle 57" width="24" height="4" transform="translate(4 8)" fill="#161615"/>
  <path id="Path_112" data-name="Path 112" d="M30,0H2A2,2,0,0,0,0,2V30a2,2,0,0,0,2,2H30a2,2,0,0,0,2-2V2A2,2,0,0,0,30,0ZM28,27a1,1,0,0,1-1,1H5a1,1,0,0,1-1-1V5A1,1,0,0,1,5,4H28V27Z" fill="#161615"/>
</svg>
