<svg xmlns="http://www.w3.org/2000/svg" viewBox="0 0 24 24">    <path fill="#FFFFFF" d="M 8 3 L 8 5 L 9 5 L 9 10 L 3.4277344 17.773438 L 3.4316406 17.773438 C 3.1656406 18.112437 3 18.535 3 19 C 3 20.105 3.895 21 5 21 L 19 21 C 20.105 21 21 20.105 21 19 C 21 18.535 20.834359 18.112437 20.568359 17.773438 L 20.572266 17.773438 L 15 10 L 15 5 L 16 5 L 16 3 L 8 3 z M 11 5 L 13 5 L 13 10 L 11 10 L 11 5 z M 13 13 C 13.552 13 14 13.448 14 14 C 14 14.552 13.552 15 13 15 C 12.448 15 12 14.552 12 14 C 12 13.448 12.448 13 13 13 z M 9.5 16 C 10.328 16 11 16.672 11 17.5 C 11 18.328 10.328 19 9.5 19 C 8.672 19 8 18.328 8 17.5 C 8 16.672 8.672 16 9.5 16 z"></path></svg>