<svg xmlns="http://www.w3.org/2000/svg" viewBox="0 0 50 50"><path d="M 25 0 C 22.792969 0 21 1.792969 21 4 C 21 6.207031 22.792969 8 25 8 C 27.207031 8 29 6.207031 29 4 C 29 1.792969 27.207031 0 25 0 Z M 19.375 6.09375 C 14.804688 8.050781 12 12.457031 12 18 C 12 29 8.199219 31.761719 5.9375 33.40625 C 4.933594 34.132813 4 34.808594 4 36 C 4 40.207031 10.28125 42 25 42 C 39.71875 42 46 40.207031 46 36 C 46 34.808594 45.066406 34.132813 44.0625 33.40625 C 41.800781 31.761719 38 29 38 18 C 38 12.441406 35.199219 8.046875 30.625 6.09375 C 29.769531 8.367188 27.566406 10 25 10 C 22.433594 10 20.230469 8.363281 19.375 6.09375 Z M 19 43.875 C 19 43.914063 19 43.960938 19 44 C 19 47.308594 21.691406 50 25 50 C 28.308594 50 31 47.308594 31 44 C 31 43.960938 31 43.914063 31 43.875 C 29.117188 43.953125 27.117188 44 25 44 C 22.882813 44 20.882813 43.953125 19 43.875 Z"></path></svg>