<svg xmlns="http://www.w3.org/2000/svg" viewBox="0 0 50 50"><path fill="#FFFFFF" d="M47 37H3c-.552 0-1-.447-1-1v-2c0-.553.448-1 1-1h44c.553 0 1 .447 1 1v2C48 36.553 47.553 37 47 37zM6 39v5.5C6 45.879 7.122 47 8.5 47s2.5-1.121 2.5-2.5V39H6zM39 39v5.5c0 1.379 1.121 2.5 2.5 2.5s2.5-1.121 2.5-2.5V39H39zM14 3H9C8.448 3 8 3.447 8 4v26c0 .553.448 1 1 1h5c.552 0 1-.447 1-1V4C15 3.447 14.552 3 14 3zM12 27h-1c-.552 0-1-.447-1-1s.448-1 1-1h1c.552 0 1 .447 1 1S12.552 27 12 27zM12 9h-1c-.552 0-1-.447-1-1s.448-1 1-1h1c.552 0 1 .447 1 1S12.552 9 12 9zM23 5h-5c-.552 0-1 .447-1 1v24c0 .553.448 1 1 1h5c.552 0 1-.447 1-1V6C24 5.447 23.552 5 23 5zM21 27h-1c-.552 0-1-.447-1-1s.448-1 1-1h1c.552 0 1 .447 1 1S21.552 27 21 27zM21 11h-1c-.552 0-1-.447-1-1s.448-1 1-1h1c.552 0 1 .447 1 1S21.552 11 21 11zM32 7h-5c-.552 0-1 .447-1 1v22c0 .553.448 1 1 1h5c.552 0 1-.447 1-1V8C33 7.447 32.552 7 32 7zM30 27h-1c-.552 0-1-.447-1-1s.448-1 1-1h1c.552 0 1 .447 1 1S30.552 27 30 27zM30 13h-1c-.552 0-1-.447-1-1s.448-1 1-1h1c.552 0 1 .447 1 1S30.552 13 30 13zM41 9h-5c-.552 0-1 .447-1 1v20c0 .553.448 1 1 1h5c.552 0 1-.447 1-1V10C42 9.447 41.552 9 41 9zM39 27h-1c-.552 0-1-.447-1-1s.448-1 1-1h1c.552 0 1 .447 1 1S39.552 27 39 27zM39 15h-1c-.552 0-1-.447-1-1s.448-1 1-1h1c.552 0 1 .447 1 1S39.552 15 39 15z"></path></svg>