<svg xmlns="http://www.w3.org/2000/svg" viewBox="0 0 50 50">
<path fill="#FFFFFF" d="M 11 3 C 10.448 3 10 3.448 10 4 L 10 6 L 40 6 L 40 4 C 40 3.448 39.552 3 39 3 L 11 3 z M 9 8 C 8.448 8 8 8.448 8 9 L 8 11 L 42 11 L 42 9 C 42 8.448 41.552 8 41 8 L 9 8 z M 7 13 C 6.448 13 6 13.448 6 14 L 6 27 L 18 27 C 19.105 27 20 27.895 20 29 L 20 29.777344 C 20 32.387344 21.903 34.722563 24.5 34.976562 C 27.48 35.267563 30 32.922 30 30 L 30 29 C 30 27.895 30.895 27 32 27 L 44 27 L 44 14 C 44 13.448 43.552 13 43 13 L 7 13 z M 4 29 C 3.448 29 3 29.448 3 30 L 3 46 C 3 46.552 3.448 47 4 47 L 46 47 C 46.552 47 47 46.552 47 46 L 47 30 C 47 29.448 46.552 29 46 29 L 33 29 C 32.448 29 32 29.448 32 30 L 32 31 C 31.513 34.388 28.521 37 25 37 C 21.479 37 18.487 34.388 18 31 L 18 30 C 18 29.448 17.552 29 17 29 L 4 29 z"></path>
</svg>