<svg xmlns="http://www.w3.org/2000/svg" viewBox="0 0 48 48"><path fill="#0003" d="M 23.919922 4 C 12.873922 4 3.9199219 12.954 3.9199219 24 C 3.9199219 35.046 12.873922 44 23.919922 44 C 34.965922 44 43.919922 35.046 43.919922 24 C 43.919922 12.954 34.965922 4 23.919922 4 z M 21.484375 17 C 21.733375 17 21.983844 17.064406 22.214844 17.191406 C 22.697844 17.460406 22.984375 17.950906 22.984375 18.503906 L 22.984375 22.671875 L 31.705078 17.230469 C 31.951078 17.077469 32.225047 17.001953 32.498047 17.001953 C 32.747047 17.001953 32.997563 17.064406 33.226562 17.191406 C 33.710562 17.458406 34 17.949953 34 18.501953 L 34 29.496094 C 34 30.049094 33.711516 30.539594 33.228516 30.808594 C 32.998516 30.936594 32.747047 31 32.498047 31 C 32.224047 31 31.951078 30.922531 31.705078 30.769531 L 22.984375 25.328125 L 22.984375 29.498047 C 22.984375 30.051047 22.697844 30.541547 22.214844 30.810547 C 21.983844 30.937547 21.733375 31 21.484375 31 C 21.210375 31 20.937406 30.922531 20.691406 30.769531 L 11.880859 25.273438 C 11.439859 24.997438 11.175781 24.521 11.175781 24 C 11.175781 23.479 11.439859 23.002562 11.880859 22.726562 L 20.691406 17.230469 C 20.937406 17.077469 21.210375 17 21.484375 17 z"></path></svg>