<?xml version="1.0" encoding="utf-8"?>
<!-- Generator: Adobe Illustrator 25.2.1, SVG Export Plug-In . SVG Version: 6.00 Build 0)  -->
<svg version="1.1" id="Layer_1" xmlns="http://www.w3.org/2000/svg" xmlns:xlink="http://www.w3.org/1999/xlink" x="0px" y="0px"
	 viewBox="0 0 500 500" style="enable-background:new 0 0 500 500;" xml:space="preserve">
<style type="text/css">
	.st0{fill:#323b4d;}
	.st1{fill:#FBC658;}
</style>
<circle id="Circle" class="st0" cx="250" cy="250" r="250"/>
<g id="Plates_1_" transform="translate(0.000000,500.000000) scale(0.100000,-0.100000)">
	<path class="st1" d="M2549.4,4219c-7.4-4.2-390.5-310.1-851.9-681.4l-838.1-674l2.1-528.4l3.2-528.4l760.9-367.1
		c418-201.5,766.2-363.9,772.5-359.7c6.3,4.2,401.1,308,877.3,676.1l864.6,667.7v89.7c0,96.9,8.8,99.5-0.8,94.2
		c-7.4-4.2-405.6-315.7-869.1-677.5C2760,1533.6,2417.1,1273,2403.3,1273c-33.9,0-1376.8,642.4-1403.2,671.9
		c-23.3,25.3-24.3,31.6-24.3,264.7c0,262.6,5.3,286.9,59.3,286.9c14.8,0,327-140.3,694.2-311.2l666.7-311.2l266.7,208.8
		c146,113.9,548.2,428.2,893.2,698.3c345,270,639.2,491.5,652.9,493.6c38.1,5.3,68.8-34.8,68.8-89.7c0-36.9-6.3-52.7-33.9-81.2
		C4197,3055.6,2437.2,1682.3,2413.9,1677c-10.6-3.2-304.8,128.7-654,291.1c-349.2,163.5-638.1,296.4-641.3,296.4
		c-3.2,0-4.2-41.1-3.2-90.7l3.2-91.8l624.4-299.6c343.9-164.5,631.8-300.6,640.2-303.8c10.6-3.2,338.6,245.8,857.2,650.8
		c903.7,703.5,962.1,738.6,975.7,746.8c39.7,24,39.7,24,62.1-12.3l-0.8-39.4v-247.9v-248.9l-28.6-31.6
		c-52.9-57-1827.6-1423.9-1849.8-1423.9c-32.8,0-1637.1,776.3-1658.3,802.7c-18,21.1-19,68.6-19,654v631.8l29.6,31.6
		c57.1,62.2,1774.7,1434.5,1795.8,1434.5c11.6,0,394.7-170.9,851.9-380.8c457.2-209.9,841.3-390.3,855.1-402.9
		c29.6-27.4,32.8-106.5,4.2-140.3c-30.7-38-1832.9-1428.2-1850.9-1428.2c-30.7,0-1361.9,624.4-1386.3,650.8
		c-47.6,50.6-23.3,161.4,36,161.4c14.8,0,322.8-137.1,683.6-305.9l657.2-305.9l38.1,29.5c20.1,16.9,388.4,301.7,818,633.9
		c429.6,333.3,777.8,608.6,772.5,612.8C4003.4,3573.5,2558.9,4225.3,2549.4,4219z"/>
</g>
</svg>
