<svg xmlns="http://www.w3.org/2000/svg" viewBox="0 0 50 50"><path fill="#FFFFFF" d="M 15.53125 2.582031 C 15.339844 2.59375 15.152344 2.65625 15 2.769531 C 5.492188 9.390625 3.148438 22.496094 9.769531 32 C 13.636719 37.554688 19.71875 40.640625 26 40.949219 L 26 44.054688 C 21.980469 44.324219 17.636719 46.070313 17.636719 46.070313 C 17.1875 46.246094 16.933594 46.714844 17.019531 47.1875 C 17.109375 47.65625 17.519531 48 18 48 L 26.832031 48 C 26.941406 48.019531 27.050781 48.019531 27.15625 48 L 36 48 C 36.480469 48 36.890625 47.65625 36.980469 47.1875 C 37.066406 46.714844 36.8125 46.246094 36.363281 46.070313 C 36.363281 46.070313 32.019531 44.324219 28 44.054688 L 28 40.953125 C 31.820313 40.773438 35.636719 39.574219 39 37.230469 C 39.308594 37.03125 39.480469 36.683594 39.453125 36.316406 C 39.425781 35.953125 39.203125 35.636719 38.871094 35.484375 C 38.539063 35.332031 38.152344 35.371094 37.859375 35.589844 C 34.585938 37.867188 30.851563 38.972656 27.152344 39 C 27.09375 38.992188 27.039063 38.984375 26.984375 38.984375 C 26.957031 38.988281 26.929688 38.988281 26.902344 38.988281 C 20.9375 38.957031 15.082031 36.132813 11.410156 30.859375 C 5.40625 22.238281 7.519531 10.414063 16.140625 4.410156 C 16.496094 4.167969 16.660156 3.726563 16.542969 3.3125 C 16.429688 2.894531 16.058594 2.601563 15.628906 2.582031 C 15.597656 2.582031 15.5625 2.582031 15.53125 2.582031 Z M 27 3 C 25.226563 3 23.523438 3.285156 21.917969 3.796875 C 23.035156 4.117188 24.222656 4.585938 25.472656 5.242188 C 26.726563 5.898438 27.945313 6.691406 29.121094 7.574219 L 33.707031 4.382813 C 31.648438 3.496094 29.382813 3 27 3 Z M 18.996094 5.320313 C 18.796875 5.320313 18.609375 5.332031 18.429688 5.351563 C 18.316406 5.421875 18.199219 5.480469 18.089844 5.550781 L 22.65625 12.070313 L 27.386719 8.78125 C 26.457031 8.117188 25.503906 7.515625 24.542969 7.007813 C 22.433594 5.902344 20.480469 5.320313 18.996094 5.320313 Z M 35.75 5.453125 L 30.78125 8.90625 C 32.324219 10.253906 33.722656 11.757813 34.910156 13.347656 L 40.386719 9.554688 C 39.105469 7.917969 37.535156 6.527344 35.75 5.453125 Z M 16.449219 6.695313 C 16.355469 6.765625 16.269531 6.847656 16.179688 6.921875 C 15.214844 8.867188 15.269531 12.53125 16.328125 16.472656 L 21.015625 13.214844 Z M 13.566406 9.617188 C 11.335938 12.492188 10 16.089844 10 20 C 10 20.285156 10.027344 20.5625 10.042969 20.84375 L 14.582031 17.6875 C 13.738281 14.816406 13.386719 11.988281 13.566406 9.617188 Z M 29.074219 10.097656 L 23.828125 13.746094 L 27.265625 18.652344 L 33.265625 14.488281 C 32.082031 12.917969 30.648438 11.421875 29.074219 10.097656 Z M 41.515625 11.203125 L 36.046875 14.996094 C 37.09375 16.65625 37.988281 18.476563 38.695313 20.359375 L 43.695313 16.84375 C 43.3125 14.8125 42.558594 12.910156 41.515625 11.203125 Z M 22.1875 14.886719 L 16.957031 18.519531 C 17.613281 20.382813 18.492188 22.246094 19.585938 23.976563 L 25.621094 19.792969 Z M 34.402344 16.136719 L 28.410156 20.289063 L 31.832031 25.179688 L 36.992188 21.554688 C 36.316406 19.648438 35.433594 17.792969 34.402344 16.136719 Z M 43.957031 19.15625 L 39.371094 22.382813 C 39.757813 23.703125 40.0625 25.03125 40.246094 26.34375 C 40.453125 27.855469 40.484375 29.230469 40.375 30.457031 C 42.640625 27.574219 44 23.945313 44 20 C 44 19.714844 43.972656 19.4375 43.957031 19.15625 Z M 15.261719 19.703125 L 10.304688 23.148438 C 10.695313 25.214844 11.460938 27.140625 12.527344 28.871094 L 17.953125 25.109375 C 16.867188 23.402344 15.957031 21.570313 15.261719 19.703125 Z M 26.765625 21.429688 L 20.730469 25.613281 C 21.941406 27.207031 23.386719 28.695313 24.980469 29.996094 L 30.199219 26.328125 Z M 37.640625 23.597656 L 33.003906 26.851563 L 37.507813 33.28125 C 38.371094 31.96875 38.667969 29.558594 38.265625 26.617188 C 38.125 25.628906 37.914063 24.613281 37.640625 23.597656 Z M 19.085938 26.753906 L 13.667969 30.515625 C 14.96875 32.160156 16.566406 33.554688 18.382813 34.628906 L 23.28125 31.1875 C 21.714844 29.851563 20.289063 28.351563 19.085938 26.753906 Z M 31.371094 28 L 26.6875 31.292969 C 27.558594 31.890625 28.453125 32.433594 29.363281 32.902344 C 31.957031 34.230469 34.304688 34.75 35.855469 34.40625 Z M 24.964844 32.503906 L 20.4375 35.683594 C 22.460938 36.53125 24.675781 37 27 37 C 28.828125 37 30.582031 36.695313 32.234375 36.15625 C 31.050781 35.851563 29.78125 35.363281 28.453125 34.683594 C 27.257813 34.066406 26.089844 33.324219 24.964844 32.503906 Z"></path></svg>