<svg xmlns="http://www.w3.org/2000/svg" viewBox="0 0 50 50"><path d="M 45.960938 1.9804688 A 2.0002 2.0002 0 0 0 44.585938 2.5859375 L 39.783203 7.3886719 C 35.784866 4.0305094 30.620477 2 25 2 C 12.321124 2 2 12.321124 2 25 C 2 30.620022 4.0284529 35.786167 7.3867188 39.785156 L 2.5859375 44.585938 A 2.0002 2.0002 0 1 0 5.4140625 47.414062 L 47.414062 5.4140625 A 2.0002 2.0002 0 0 0 45.960938 1.9804688 z M 25 6 C 29.537325 6 33.684636 7.5809169 36.947266 10.224609 L 10.224609 36.947266 C 7.5806394 33.684274 6 29.537298 6 25 C 6 14.482876 14.482876 6 25 6 z M 43.845703 11.8125 L 40.955078 14.699219 C 42.928078 17.741219 44 21.281 44 25 C 44 35.517124 35.517124 44 25 44 C 21.292 44 17.741312 42.936891 14.695312 40.962891 L 11.826172 43.830078 C 15.666172 46.525078 20.221 48 25 48 C 37.678876 48 48 37.678876 48 25 C 48 20.204 46.543703 15.6475 43.845703 11.8125 z"></path></svg>