<?xml version="1.0" encoding="utf-8"?>
<svg viewBox="0 0 256 256" xmlns="http://www.w3.org/2000/svg">
  <g transform="matrix(1, 0, 0, 1, 0, 3.552713678800501e-15)">
    <path fill="#FFFFFF" d="M201.3,29.1h-11.9v-9c0-5.6-4.5-10.1-10.1-10.1h-3.7c-5.6,0-10.1,4.5-10.1,10.1v9H94.6v-9c0-5.6-4.5-10.1-10.1-10.1h-3.7c-5.6,0-10.1,4.5-10.1,10.1v9h-16c-15.1,0-27.3,12.3-27.3,27.3v162.3c0,15.1,12.3,27.3,27.3,27.3h146.5c15.1,0,27.3-12.3,27.3-27.3V56.4C228.6,41.4,216.3,29.1,201.3,29.1z M212.1,218.7c0,6-4.9,10.9-10.9,10.9H54.7c-6,0-10.9-4.9-10.9-10.9V56.4c0-6,4.9-10.9,10.9-10.9h16v12.9c0,5.6,4.5,10.1,10.1,10.1h3.7c5.6,0,10.1-4.5,10.1-10.1V45.6h70.8v12.9c0,5.6,4.5,10.1,10.1,10.1h3.7c5.6,0,10.1-4.5,10.1-10.1V45.6h11.9c6,0,10.9,4.9,10.9,10.9V218.7L212.1,218.7z"/>
    <path fill="#FFFFFF" d="M183.7,90.9H75.6c-4.6,0-8.2,3.7-8.2,8.2s3.7,8.2,8.2,8.2h108.1c4.6,0,8.2-3.7,8.2-8.2S188.2,90.9,183.7,90.9z"/>
    <path fill="#FFFFFF" d="M183.1,123.6H75c-4.6,0-8.2,3.7-8.2,8.2c0,4.6,3.7,8.2,8.2,8.2h108.1c4.6,0,8.2-3.7,8.2-8.2C191.3,127.2,187.6,123.6,183.1,123.6z"/>
    <path fill="#FFFFFF" d="M182.5,156.2H74.4c-4.6,0-8.2,3.7-8.2,8.2c0,4.6,3.7,8.2,8.2,8.2h108.1c4.6,0,8.2-3.7,8.2-8.2C190.8,159.9,187.1,156.2,182.5,156.2z"/>
    <path fill="#FFFFFF" d="M181.9,188.8H73.8c-4.6,0-8.2,3.7-8.2,8.2c0,4.6,3.7,8.2,8.2,8.2h108.1c4.6,0,8.2-3.7,8.2-8.2C190.2,192.5,186.5,188.8,181.9,188.8z"/>
  </g>
</svg>