<svg xmlns="http://www.w3.org/2000/svg" viewBox="0 0 50 50">    <path d="M 9 4 C 6.24 4 4 6.24 4 9 L 4 41 C 4 43.76 6.24 46 9 46 L 41 46 C 43.76 46 46 43.76 46 41 L 46 9 C 46 6.24 43.76 4 41 4 L 9 4 z M 23.429688 10 L 26.410156 10 L 27.279297 14.720703 C 28.379297 14.960703 29.319766 15.430469 30.259766 15.980469 L 34.339844 13.310547 L 36.470703 15.429688 L 33.800781 19.529297 C 34.350781 20.469297 34.820781 21.419531 35.050781 22.519531 L 39.839844 23.460938 L 40 23.460938 L 40 26.460938 L 35.210938 27.400391 C 34.970937 28.500391 34.499219 29.450625 33.949219 30.390625 L 36.619141 34.490234 L 34.5 36.609375 L 30.419922 33.939453 C 29.479922 34.489453 28.529687 34.959219 27.429688 35.199219 L 26.490234 40 L 23.509766 40 L 22.570312 35.199219 C 21.470312 34.959219 20.520078 34.489453 19.580078 33.939453 L 15.5 36.609375 L 13.380859 34.490234 L 16.050781 30.390625 C 15.500781 29.450625 15.029063 28.500391 14.789062 27.400391 L 10 26.460938 L 10 23.460938 L 14.710938 22.599609 C 14.950938 21.499609 15.420703 20.549375 15.970703 19.609375 L 13.300781 15.509766 L 15.419922 13.390625 L 19.5 16.060547 C 20.45 15.510547 21.390234 15.040781 22.490234 14.800781 L 23.429688 10 z M 25 20 C 22.25 20 20 22.25 20 25 C 20 27.75 22.25 30 25 30 C 27.75 30 30 27.75 30 25 C 30 22.25 27.75 20 25 20 z"></path></svg>