<svg xmlns="http://www.w3.org/2000/svg" viewBox="0 0 48 48"><path fill="#0003"  d="M 23.919922 4 C 12.873922 4 3.9199219 12.954 3.9199219 24 C 3.9199219 35.046 12.873922 44 23.919922 44 C 34.965922 44 43.919922 35.046 43.919922 24 C 43.919922 12.954 34.965922 4 23.919922 4 z M 15.341797 17 C 15.615797 17 15.886812 17.076469 16.132812 17.230469 L 24.853516 22.671875 L 24.853516 18.503906 C 24.853516 17.949906 25.142 17.458453 25.625 17.189453 C 25.856 17.062453 26.106469 17 26.355469 17 C 26.628469 17 26.900484 17.076469 27.146484 17.230469 L 35.958984 22.728516 C 36.399984 23.003516 36.664062 23.479 36.664062 24 C 36.664062 24.521 36.399984 24.996484 35.958984 25.271484 L 27.146484 30.769531 C 26.899484 30.924531 26.627516 31 26.353516 31 C 26.104516 31 25.856 30.937547 25.625 30.810547 C 25.142 30.541547 24.853516 30.050094 24.853516 29.496094 L 24.853516 25.328125 L 16.132812 30.769531 C 15.886812 30.924531 15.613844 31 15.339844 31 C 15.090844 31 14.842328 30.937547 14.611328 30.810547 C 14.128328 30.541547 13.839844 30.050094 13.839844 29.496094 L 13.839844 18.503906 C 13.839844 17.949906 14.128328 17.458453 14.611328 17.189453 C 14.842328 17.062453 15.092797 17 15.341797 17 z"></path></svg>