<svg xmlns="http://www.w3.org/2000/svg" viewBox="0 10 50 50">
<path d="M 2.8125 11 C 1.707031 11.050781 0.855469 11.988281 0.90625 13.09375 C 0.957031 14.199219 1.894531 15.050781 3 15 L 13 15 C 13.722656 15.011719 14.390625 14.632813 14.753906 14.007813 C 15.121094 13.386719 15.121094 12.613281 14.753906 11.992188 C 14.390625 11.367188 13.722656 10.988281 13 11 L 3 11 C 2.9375 10.996094 2.875 10.996094 2.8125 11 Z M 2.8125 16 C 1.707031 16.050781 0.855469 16.988281 0.90625 18.09375 C 0.957031 19.199219 1.894531 20.050781 3 20 L 13 20 C 13.722656 20.011719 14.390625 19.632813 14.753906 19.007813 C 15.121094 18.386719 15.121094 17.613281 14.753906 16.992188 C 14.390625 16.367188 13.722656 15.988281 13 16 L 3 16 C 2.9375 15.996094 2.875 15.996094 2.8125 16 Z M 2.8125 21 C 1.707031 21.050781 0.855469 21.988281 0.90625 23.09375 C 0.957031 24.199219 1.894531 25.050781 3 25 L 13 25 C 13.722656 25.011719 14.390625 24.632813 14.753906 24.007813 C 15.121094 23.386719 15.121094 22.613281 14.753906 21.992188 C 14.390625 21.367188 13.722656 20.988281 13 21 L 3 21 C 2.9375 20.996094 2.875 20.996094 2.8125 21 Z M 36.8125 21 C 35.707031 21.050781 34.855469 21.988281 34.90625 23.09375 C 34.957031 24.199219 35.894531 25.050781 37 25 L 47 25 C 47.722656 25.011719 48.390625 24.632813 48.753906 24.007813 C 49.121094 23.386719 49.121094 22.613281 48.753906 21.992188 C 48.390625 21.367188 47.722656 20.988281 47 21 L 37 21 C 36.9375 20.996094 36.875 20.996094 36.8125 21 Z M 2.8125 26 C 1.707031 26.050781 0.855469 26.988281 0.90625 28.09375 C 0.957031 29.199219 1.894531 30.050781 3 30 L 13 30 C 13.722656 30.011719 14.390625 29.632813 14.753906 29.007813 C 15.121094 28.386719 15.121094 27.613281 14.753906 26.992188 C 14.390625 26.367188 13.722656 25.988281 13 26 L 3 26 C 2.9375 25.996094 2.875 25.996094 2.8125 26 Z M 36.8125 26 C 35.707031 26.050781 34.855469 26.988281 34.90625 28.09375 C 34.957031 29.199219 35.894531 30.050781 37 30 L 47 30 C 47.722656 30.011719 48.390625 29.632813 48.753906 29.007813 C 49.121094 28.386719 49.121094 27.613281 48.753906 26.992188 C 48.390625 26.367188 47.722656 25.988281 47 26 L 37 26 C 36.9375 25.996094 36.875 25.996094 36.8125 26 Z M 2.8125 31 C 1.707031 31.050781 0.855469 31.988281 0.90625 33.09375 C 0.957031 34.199219 1.894531 35.050781 3 35 L 13 35 C 13.722656 35.011719 14.390625 34.632813 14.753906 34.007813 C 15.121094 33.386719 15.121094 32.613281 14.753906 31.992188 C 14.390625 31.367188 13.722656 30.988281 13 31 L 3 31 C 2.9375 30.996094 2.875 30.996094 2.8125 31 Z M 19.8125 31 C 18.707031 31.050781 17.855469 31.988281 17.90625 33.09375 C 17.957031 34.199219 18.894531 35.050781 20 35 L 30 35 C 30.722656 35.011719 31.390625 34.632813 31.753906 34.007813 C 32.121094 33.386719 32.121094 32.613281 31.753906 31.992188 C 31.390625 31.367188 30.722656 30.988281 30 31 L 20 31 C 19.9375 30.996094 19.875 30.996094 19.8125 31 Z M 36.8125 31 C 35.707031 31.050781 34.855469 31.988281 34.90625 33.09375 C 34.957031 34.199219 35.894531 35.050781 37 35 L 47 35 C 47.722656 35.011719 48.390625 34.632813 48.753906 34.007813 C 49.121094 33.386719 49.121094 32.613281 48.753906 31.992188 C 48.390625 31.367188 47.722656 30.988281 47 31 L 37 31 C 36.9375 30.996094 36.875 30.996094 36.8125 31 Z M 2.8125 36 C 1.707031 36.050781 0.855469 36.988281 0.90625 38.09375 C 0.957031 39.199219 1.894531 40.050781 3 40 L 13 40 C 13.722656 40.011719 14.390625 39.632813 14.753906 39.007813 C 15.121094 38.386719 15.121094 37.613281 14.753906 36.992188 C 14.390625 36.367188 13.722656 35.988281 13 36 L 3 36 C 2.9375 35.996094 2.875 35.996094 2.8125 36 Z M 19.8125 36 C 18.707031 36.050781 17.855469 36.988281 17.90625 38.09375 C 17.957031 39.199219 18.894531 40.050781 20 40 L 30 40 C 30.722656 40.011719 31.390625 39.632813 31.753906 39.007813 C 32.121094 38.386719 32.121094 37.613281 31.753906 36.992188 C 31.390625 36.367188 30.722656 35.988281 30 36 L 20 36 C 19.9375 35.996094 19.875 35.996094 19.8125 36 Z M 36.8125 36 C 35.707031 36.050781 34.855469 36.988281 34.90625 38.09375 C 34.957031 39.199219 35.894531 40.050781 37 40 L 47 40 C 47.722656 40.011719 48.390625 39.632813 48.753906 39.007813 C 49.121094 38.386719 49.121094 37.613281 48.753906 36.992188 C 48.390625 36.367188 47.722656 35.988281 47 36 L 37 36 C 36.9375 35.996094 36.875 35.996094 36.8125 36 Z M 2.8125 41 C 1.707031 41.050781 0.855469 41.988281 0.90625 43.09375 C 0.957031 44.199219 1.894531 45.050781 3 45 L 13 45 C 13.722656 45.011719 14.390625 44.632813 14.753906 44.007813 C 15.121094 43.386719 15.121094 42.613281 14.753906 41.992188 C 14.390625 41.367188 13.722656 40.988281 13 41 L 3 41 C 2.9375 40.996094 2.875 40.996094 2.8125 41 Z M 19.8125 41 C 18.707031 41.050781 17.855469 41.988281 17.90625 43.09375 C 17.957031 44.199219 18.894531 45.050781 20 45 L 30 45 C 30.722656 45.011719 31.390625 44.632813 31.753906 44.007813 C 32.121094 43.386719 32.121094 42.613281 31.753906 41.992188 C 31.390625 41.367188 30.722656 40.988281 30 41 L 20 41 C 19.9375 40.996094 19.875 40.996094 19.8125 41 Z M 36.8125 41 C 35.707031 41.050781 34.855469 41.988281 34.90625 43.09375 C 34.957031 44.199219 35.894531 45.050781 37 45 L 47 45 C 47.722656 45.011719 48.390625 44.632813 48.753906 44.007813 C 49.121094 43.386719 49.121094 42.613281 48.753906 41.992188 C 48.390625 41.367188 47.722656 40.988281 47 41 L 37 41 C 36.9375 40.996094 36.875 40.996094 36.8125 41 Z M 2.8125 46 C 1.707031 46.050781 0.855469 46.988281 0.90625 48.09375 C 0.957031 49.199219 1.894531 50.050781 3 50 L 13 50 C 13.722656 50.011719 14.390625 49.632813 14.753906 49.007813 C 15.121094 48.386719 15.121094 47.613281 14.753906 46.992188 C 14.390625 46.367188 13.722656 45.988281 13 46 L 3 46 C 2.9375 45.996094 2.875 45.996094 2.8125 46 Z M 19.8125 46 C 18.707031 46.050781 17.855469 46.988281 17.90625 48.09375 C 17.957031 49.199219 18.894531 50.050781 20 50 L 30 50 C 30.722656 50.011719 31.390625 49.632813 31.753906 49.007813 C 32.121094 48.386719 32.121094 47.613281 31.753906 46.992188 C 31.390625 46.367188 30.722656 45.988281 30 46 L 20 46 C 19.9375 45.996094 19.875 45.996094 19.8125 46 Z M 36.8125 46 C 35.707031 46.050781 34.855469 46.988281 34.90625 48.09375 C 34.957031 49.199219 35.894531 50.050781 37 50 L 47 50 C 47.722656 50.011719 48.390625 49.632813 48.753906 49.007813 C 49.121094 48.386719 49.121094 47.613281 48.753906 46.992188 C 48.390625 46.367188 47.722656 45.988281 47 46 L 37 46 C 36.9375 45.996094 36.875 45.996094 36.8125 46 Z"></path></svg>