<svg xmlns="http://www.w3.org/2000/svg" viewBox="0 0 24 24"><path fill="#FFFFFF" d="M 3 3 L 3 21 L 5 21 L 5 19 L 7 19 L 7 17 L 5 17 L 5 13 L 13 13 L 13 11 L 5 11 L 5 7 L 8 7 L 8 5 L 5 5 L 5 3 L 3 3 z M 12 4 C 10.897 4 10 4.897 10 6 C 10 7.103 10.897 8 12 8 C 12.736781 8 13.373707 7.5945235 13.720703 7 L 21 7 L 21 5 L 13.720703 5 C 13.373707 4.4054765 12.736781 4 12 4 z M 17 10 C 15.897 10 15 10.897 15 12 C 15 13.103 15.897 14 17 14 C 17.736781 14 18.373707 13.594524 18.720703 13 L 21 13 L 21 11 L 18.720703 11 C 18.373707 10.405476 17.736781 10 17 10 z M 11 16 C 9.897 16 9 16.897 9 18 C 9 19.103 9.897 20 11 20 C 11.736781 20 12.373707 19.594524 12.720703 19 L 21 19 L 21 17 L 12.720703 17 C 12.373707 16.405476 11.736781 16 11 16 z"></path></svg>