<svg xmlns="http://www.w3.org/2000/svg" viewBox="0 0 64 64"><path d="M45 45c-14.359 0-26-11.641-26-26 0-3.814.828-7.433 2.304-10.696C12.281 12.383 6 21.455 6 32c0 14.359 11.641 26 26 26 10.545 0 19.617-6.282 23.696-15.304C52.433 44.172 48.814 45 45 45zM41 11.333l-2.207-.315c-1.457-.208-2.603-1.353-2.811-2.811L35.667 6h-1.333l-.315 2.207c-.208 1.457-1.353 2.603-2.811 2.811L29 11.333v1.333l2.207.315c1.457.208 2.603 1.353 2.811 2.811L34.333 18h1.333l.315-2.207c.208-1.457 1.353-2.603 2.811-2.811L41 12.667V11.333zM59 26.111l-2.943-.42c-1.943-.278-3.47-1.805-3.748-3.748L51.889 19h-1.778l-.42 2.943c-.278 1.943-1.805 3.47-3.748 3.748L43 26.111v1.778l2.943.42c1.943.278 3.47 1.805 3.748 3.748L50.111 35h1.778l.42-2.943c.278-1.943 1.805-3.47 3.748-3.748L59 27.889V26.111z"></path></svg>