<svg xmlns="http://www.w3.org/2000/svg" viewBox="0 0 24 24">    <path d="M 5.0507812 6.9296875 C 4.5140156 6.9035781 4 7.3214375 4 7.9296875 L 4 16.070312 C 4 16.881312 4.9131719 17.354719 5.5761719 16.886719 L 11.34375 12.816406 C 11.90775 12.418406 11.90775 11.581594 11.34375 11.183594 L 5.5761719 7.1132812 C 5.4104219 6.9962813 5.2297031 6.9383906 5.0507812 6.9296875 z M 14.050781 6.9296875 C 13.514016 6.9035781 13 7.3214375 13 7.9296875 L 13 16.070312 C 13 16.881312 13.913172 17.354719 14.576172 16.886719 L 20.34375 12.816406 C 20.90775 12.418406 20.90775 11.581594 20.34375 11.183594 L 14.576172 7.1132812 C 14.410422 6.9962813 14.229703 6.9383906 14.050781 6.9296875 z"></path></svg>