<svg xmlns="http://www.w3.org/2000/svg" viewBox="0 0 24 24"><path d="M 3.984375 2.9863281 A 1.0001 1.0001 0 0 0 3 4 L 3 14 L 3 20 A 1.0001 1.0001 0 1 0 5 20 L 5 14 L 11.763672 14 C 12.142672 14 12.488203 14.213734 12.658203 14.552734 L 13.105469 15.447266 C 13.274469 15.786266 13.621 16 14 16 L 20 16 C 20.552 16 21 15.552 21 15 L 21 6 C 21 5.448 20.552 5 20 5 L 15.236328 5 C 14.857328 5 14.511797 4.7862656 14.341797 4.4472656 L 13.894531 3.5527344 C 13.725531 3.2137344 13.379 3 13 3 L 4.1542969 3 A 1.0001 1.0001 0 0 0 3.984375 2.9863281 z"></path></svg>