<svg xmlns="http://www.w3.org/2000/svg" viewBox="0 0 50 50"><path d="M 24.5 2 C 21.46875 2 19 4.46875 19 7.5 C 19 10.53125 21.46875 13 24.5 13 C 27.53125 13 30 10.53125 30 7.5 C 30 4.46875 27.53125 2 24.5 2 Z M 15 16 C 14.449219 16 14 16.445313 14 17 L 14 23 C 14 23.554688 14.449219 24 15 24 L 20 24 L 20 40 L 15 40 C 14.449219 40 14 40.445313 14 41 L 14 47 C 14 47.554688 14.449219 48 15 48 L 35 48 C 35.550781 48 36 47.554688 36 47 L 36 41 C 36 40.445313 35.550781 40 35 40 L 30 40 L 30 17 C 30 16.445313 29.550781 16 29 16 Z"></path></svg>