<svg xmlns="http://www.w3.org/2000/svg" viewBox="0 0 50 50"><path d="M 46 10.199219 L 46 6 C 46 5.398438 45.601563 5 45 5 L 5 5 C 4.398438 5 4 5.398438 4 6 L 4 10 C 1.300781 10.398438 0 12.300781 0 15.601563 C 0 19.300781 2.199219 21.898438 4.5 22.5 C 6.601563 36.199219 18.101563 46 25 46 C 32.101563 46 43.699219 36.199219 45.5 22.601563 C 48.101563 22.101563 50 19.199219 50 15.699219 C 50 12.5 48.601563 10.601563 46 10.199219 Z M 14 11 C 14 9.300781 15.300781 8 17 8 C 18.699219 8 20 9.300781 20 11 C 20 12.699219 18.699219 14 17 14 C 15.300781 14 14 12.699219 14 11 Z M 22.398438 25.5 L 16.800781 27.898438 L 14.898438 27.101563 L 16.601563 23 Z M 33.398438 35 L 27.601563 32.5 L 33.199219 30.101563 L 35.101563 30.898438 Z M 16.601563 35 L 14.898438 30.898438 L 33.398438 23 L 35.101563 27.101563 Z M 33 14 C 31.300781 14 30 12.699219 30 11 C 30 9.300781 31.300781 8 33 8 C 34.699219 8 36 9.300781 36 11 C 36 12.699219 34.699219 14 33 14 Z"></path></svg>