<svg xmlns="http://www.w3.org/2000/svg" viewBox="0 0 24 24">    <path d="M 6 4 C 4.346 4 3 5.346 3 7 L 3 8 C 5.206 8 7 9.794 7 12 L 7 13 L 17 13 L 17 12 C 17 9.794 18.794 8 21 8 L 21 7 C 21 5.346 19.654 4 18 4 L 6 4 z M 3 10 C 1.895 10 1 10.895 1 12 L 1 17 C 1 18.105 1.895 19 3 19 L 5 19 L 5 20 A 1.0001 1.0001 0 1 0 7 20 L 7 19 L 17 19 L 17 20 A 1.0001 1.0001 0 1 0 19 20 L 19 19 L 21 19 C 22.105 19 23 18.105 23 17 L 23 12 C 23 10.895 22.105 10 21 10 C 19.895 10 19 10.895 19 12 L 19 15 L 5 15 L 5 12 C 5 10.895 4.105 10 3 10 z"></path></svg>