<?xml version="1.0" encoding="utf-8"?>
<svg viewBox="0 0 994 981" xmlns="http://www.w3.org/2000/svg">
  <g transform="matrix(0.9999999999999999, 0, 0, 0.9999999999999999, -24.09360885620118, 11.849467277526855)">
    <rect x="126.09" y="193.37" width="634.307" height="614.927" style="stroke-width: 50px; stroke: #000; paint-order: fill; fill: #fbc658; transform-box: fill-box; transform-origin: 50% 50%;" rx="21.318" ry="21.318" transform="matrix(-0.707107, 0.707107, -0.707107, -0.707107, 58.343676, -7.910522)"/>
    <g transform="matrix(1.866086, 0, 0, -2.052241, 282.296753, 771.607849)" style="">
      <g>
        <path fill="#000000" d="M128,57.2H87.3l20.3-20.3c6.1-6.1,6.1-16.1,0-22.3c-6.1-6.1-16.1-6.1-22.3,0L38.2,61.8c-0.7,0.7-1.4,1.5-2,2.4c-0.3,0.4-0.4,0.8-0.7,1.2c-0.3,0.5-0.6,1-0.8,1.5c-0.2,0.5-0.3,1.1-0.5,1.6c-0.1,0.5-0.3,0.9-0.4,1.3c-0.4,2-0.4,4.1,0,6.2c0.1,0.5,0.3,0.9,0.4,1.3c0.1,0.5,0.3,1.1,0.5,1.6c0.2,0.5,0.5,1,0.8,1.5c0.2,0.4,0.4,0.8,0.7,1.2c0.6,0.9,1.2,1.7,2,2.4l47.2,47.2c3.1,3.1,7.1,4.6,11.1,4.6c4,0,8.1-1.5,11.1-4.6c6.1-6.1,6.1-16.1,0-22.3L87.3,88.7H128c34.7,0,62.9,28.2,62.9,62.9c0,34.7-28.2,62.9-62.9,62.9H49.3c-8.7,0-15.7,7-15.7,15.7c0,8.7,7.1,15.7,15.7,15.7H128c52.1,0,94.4-42.4,94.4-94.4C222.4,99.5,180.1,57.2,128,57.2z"/>
      </g>
    </g>
  </g>
</svg>