<?xml version="1.0" encoding="utf-8"?>
<svg viewBox="0 0 994 981" xmlns="http://www.w3.org/2000/svg">
  <g transform="matrix(1, 0, 0, 1, -24.09360885620118, 11.849467277526855)">
    <rect x="126.09" y="193.37" width="634.307" height="614.927" style="stroke-width: 50px; stroke: rgb(0, 0, 0); paint-order: fill; fill: rgb(243, 214, 0); transform-box: fill-box; transform-origin: 50% 50%;" rx="21.318" ry="21.318" transform="matrix(-0.707107, 0.707107, -0.707107, -0.707107, 58.343676, -7.910522)"/>
    <path d="M 668.882 749.183 C 602.475 649.461 580.705 616.523 579.876 614.158 C 577.939 608.698 581.445 601.419 587.532 598.326 C 592.236 595.869 597.4 596.779 621.843 604.24 C 634.94 608.243 645.916 611.519 646.1 611.519 C 646.285 611.519 646.469 580.31 646.469 542.277 L 646.469 472.945 L 635.495 483.5 C 612.158 505.791 585.78 523.807 555.895 537.728 C 544.366 543.096 528.41 549.465 521.309 551.558 C 519.094 552.195 517.341 552.923 517.341 553.287 C 517.341 553.651 523.706 561.749 531.546 571.302 C 539.847 581.402 546.026 589.864 546.396 591.502 C 547.687 597.234 542.983 604.24 536.618 606.06 C 534.036 606.788 519.923 604.24 446.321 589.227 C 398.361 579.491 358.514 571.121 357.685 570.757 C 356.579 570.211 361.651 562.477 383.049 531.905 C 397.899 510.887 421.049 477.858 434.608 458.569 C 457.39 425.904 459.51 423.266 463.016 421.901 C 469.933 419.171 477.496 422.083 481.001 428.816 C 482.016 430.636 483.123 439.644 484.69 457.477 C 485.889 471.853 487.089 483.682 487.275 483.954 C 488.658 485.228 517.526 473.855 532.006 466.303 C 592.236 434.821 629.959 384.687 644.257 316.719 C 646.377 306.438 646.469 305.346 646.469 258.76 L 646.469 211.174 L 648.592 210.719 C 649.698 210.446 667.037 210.355 687.053 210.446 L 723.484 210.719 L 723.761 410.71 C 723.854 520.622 724.131 610.609 724.316 610.609 C 724.499 610.609 732.062 608.334 741.101 605.514 C 771.354 596.233 772.646 595.96 776.611 596.961 C 784.267 599.054 789.432 606.606 787.588 613.339 C 787.033 615.249 777.165 631.081 765.544 648.46 C 753.922 665.929 730.771 700.596 714.26 725.526 C 697.66 750.366 683.916 770.747 683.732 770.747 C 683.455 770.747 676.815 761.011 668.882 749.183 Z" style="transform-box: fill-box; transform-origin: 50% 50%;" transform="matrix(-1, 0, 0, -1, 0.000029, 0.000034)"/>
  </g>
</svg>