<?xml version="1.0" encoding="utf-8"?>
<svg viewBox="0 0 994 981" xmlns="http://www.w3.org/2000/svg">
  <g transform="matrix(0.9999999999999999, 0, 0, 0.9999999999999999, -24.093608856201172, 11.849467277526855)">
    <rect x="126.09" y="193.37" width="634.307" height="614.927" style="stroke-width: 50px; stroke: #000; paint-order: fill; fill: #fbc658; transform-box: fill-box; transform-origin: 50% 50%;" rx="21.318" ry="21.318" transform="matrix(-0.707107, 0.707107, -0.707107, -0.707107, 58.343676, -7.910522)"/>
    <g transform="matrix(0.125079, 0, 0, -0.12134, 311.086182, 819.176636)" fill="#000000" stroke="none" style="">
      <path d="M1031 4823 l-293 -358 166 -3 166 -2 0 -203 c0 -230 8 -278 67 -397 51 -101 180 -234 273 -278 36 -18 238 -86 450 -153 212 -66 396 -128 408 -136 50 -31 52 -53 52 -473 0 -420 -2 -442 -52 -473 -12 -8 -196 -70 -408 -136 -212 -67 -414 -135 -450 -153 -93 -44 -222 -177 -273 -278 -68 -137 -67 -131 -67 -762 l0 -568 260 0 260 0 0 533 c0 509 1 533 20 564 10 17 27 36 37 41 10 5 171 58 358 116 520 164 518 163 630 267 99 93 171 220 195 344 8 42 10 207 8 540 -3 473 -3 481 -26 545 -34 95 -103 199 -177 268 -110 104 -113 105 -552 243 -449 141 -444 139 -470 178 -22 32 -23 44 -23 202 l0 169 161 0 c139 0 160 2 155 15 -7 19 -568 705 -577 705 -3 0 -138 -161 -298 -357z"/>
      <path d="M1070 2820 l0 -783 63 59 c110 106 194 154 355 204 l102 32 0 488 0 488 -102 32 c-161 50 -245 98 -355 204 l-63 59 0 -783z"/>
    </g>
  </g>
</svg>