<?xml version="1.0" encoding="utf-8"?>
<svg viewBox="3336.2839 662.5325 112.051 71.4026" xmlns="http://www.w3.org/2000/svg">
  <path d="M 3446.47 694.203 L 3397.857 663.235 L 3397.884 663.236 L 3397.604 663.062 C 3395.177 661.52 3392.204 663.531 3392.23 666.704 L 3392.23 666.715 L 3392.27 674.87 L 3392.39 698.108 C 3392.39 696.698 3391.764 695.292 3390.537 694.506 L 3341.924 663.536 L 3341.937 663.538 L 3341.657 663.364 C 3339.244 661.822 3336.27 663.832 3336.284 667.007 L 3336.284 667.016 L 3336.617 729.805 C 3336.617 730.061 3336.657 730.307 3336.684 730.545 L 3336.71 730.691 C 3336.764 730.913 3336.817 731.127 3336.884 731.331 L 3336.897 731.373 C 3336.977 731.603 3337.084 731.819 3337.204 732.023 L 3337.23 732.067 C 3337.337 732.257 3337.457 732.436 3337.59 732.601 L 3337.63 732.639 C 3337.924 732.992 3338.27 733.28 3338.644 733.496 L 3338.657 733.504 C 3339.684 734.075 3340.924 734.12 3342.044 733.389 L 3390.564 701.732 C 3391.79 700.932 3392.404 699.519 3392.39 698.11 L 3392.564 729.489 L 3392.564 729.503 C 3392.564 729.759 3392.59 730.003 3392.63 730.243 L 3392.657 730.389 C 3392.697 730.611 3392.764 730.824 3392.83 731.028 L 3392.844 731.072 C 3392.924 731.301 3393.03 731.516 3393.137 731.72 L 3393.164 731.765 C 3393.284 731.956 3393.404 732.135 3393.537 732.3 L 3393.564 732.336 C 3393.857 732.689 3394.204 732.979 3394.59 733.195 L 3394.604 733.203 C 3395.617 733.772 3396.87 733.817 3397.99 733.087 L 3446.51 701.43 C 3448.963 699.831 3448.937 695.776 3446.47 694.203" style="fill:#FFFFFF;fill-opacity:1;fill-rule:nonzero;stroke:none" id="path144"/>
</svg>