<?xml version="1.0" encoding="utf-8"?>
<svg viewBox="3918.9221 1322.705 100.2129 83.0291" xmlns="http://www.w3.org/2000/svg">
  <path d="M 3921.975 1336.748 L 3922.069 1336.814 C 3922.322 1337.001 3922.589 1337.174 3922.855 1337.334 L 3922.909 1337.374 L 3922.895 1337.361 C 3924.042 1338.014 3925.349 1338.388 3926.749 1338.388 L 4011.309 1338.388 C 4015.629 1338.388 4019.135 1334.868 4019.135 1330.544 C 4019.135 1328.261 4018.162 1326.214 4016.602 1324.782 L 4016.615 1324.79 L 4016.509 1324.696 C 4016.389 1324.589 4016.269 1324.486 4016.149 1324.389 L 4015.922 1324.225 C 4015.802 1324.138 4015.682 1324.05 4015.562 1323.97 L 4015.295 1323.806 C 4015.175 1323.737 4015.055 1323.668 4014.935 1323.604 L 4014.615 1323.445 L 4014.282 1323.294 C 4014.149 1323.242 4014.015 1323.197 4013.882 1323.15 L 4013.575 1323.044 C 4013.429 1323 4013.282 1322.965 4013.122 1322.928 L 4012.842 1322.86 C 4012.669 1322.825 4012.495 1322.802 4012.322 1322.778 L 4012.082 1322.746 C 4011.829 1322.72 4011.562 1322.705 4011.309 1322.705 L 3926.749 1322.705 C 3922.429 1322.705 3918.922 1326.216 3918.922 1330.542 C 3918.922 1330.965 3918.962 1331.376 3919.029 1331.781 C 3919.349 1333.788 3920.429 1335.548 3921.975 1336.748" style="fill:#FFFFFF;fill-opacity:1;fill-rule:nonzero;stroke:none" id="path190" transform="matrix(1, 0, 0, 1, 0, -2.2737367544323206e-13)"/>
  <path d="M 4016.602 1358.454 L 4016.615 1358.468 L 4016.522 1358.374 C 4016.389 1358.268 4016.269 1358.161 4016.135 1358.054 L 4015.935 1357.908 C 4015.815 1357.814 4015.682 1357.721 4015.562 1357.641 L 4015.309 1357.494 C 4015.189 1357.414 4015.055 1357.334 4014.935 1357.281 L 4014.629 1357.134 C 4014.509 1357.068 4014.389 1357.014 4014.269 1356.961 L 4013.922 1356.841 L 4013.575 1356.721 C 4013.442 1356.681 4013.309 1356.641 4013.175 1356.614 L 4012.842 1356.534 C 4012.695 1356.508 4012.549 1356.481 4012.402 1356.468 L 4012.082 1356.414 C 4011.895 1356.401 4011.722 1356.401 4011.535 1356.388 L 4011.309 1356.374 L 3926.749 1356.374 C 3924.095 1356.374 3921.762 1357.708 3920.335 1359.721 C 3919.442 1361.001 3918.922 1362.548 3918.922 1364.214 C 3918.922 1364.694 3918.962 1365.174 3919.055 1365.628 C 3919.402 1367.574 3920.469 1369.254 3921.962 1370.414 L 3922.082 1370.494 C 3922.322 1370.681 3922.575 1370.854 3922.842 1371.001 L 3922.909 1371.041 L 3922.895 1371.041 C 3924.042 1371.681 3925.349 1372.054 3926.749 1372.054 L 4011.309 1372.054 C 4015.629 1372.054 4019.135 1368.548 4019.135 1364.214 C 4019.135 1361.934 4018.162 1359.894 4016.602 1358.454" style="fill:#FFFFFF;fill-opacity:1;fill-rule:nonzero;stroke:none" id="path192" transform="matrix(1, 0, 0, 1, 0, -2.2737367544323206e-13)"/>
  <path d="M 4016.602 1392.134 L 4016.615 1392.134 L 4016.522 1392.054 C 4016.402 1391.948 4016.269 1391.828 4016.135 1391.721 L 4015.949 1391.588 C 4015.815 1391.494 4015.682 1391.401 4015.549 1391.308 L 4015.322 1391.174 C 4015.189 1391.094 4015.069 1391.014 4014.935 1390.948 L 4014.655 1390.814 C 4014.522 1390.748 4014.402 1390.694 4014.269 1390.641 L 4013.949 1390.521 C 4013.815 1390.468 4013.695 1390.428 4013.562 1390.388 L 4013.215 1390.294 C 4013.082 1390.268 4012.962 1390.228 4012.829 1390.201 C 4012.709 1390.174 4012.589 1390.161 4012.469 1390.148 C 4012.335 1390.134 4012.202 1390.108 4012.069 1390.094 L 4011.749 1390.081 C 4011.602 1390.068 4011.455 1390.054 4011.309 1390.054 L 3926.749 1390.054 C 3923.775 1390.054 3921.189 1391.708 3919.869 1394.161 C 3919.255 1395.268 3918.922 1396.534 3918.922 1397.894 C 3918.922 1398.428 3918.975 1398.961 3919.069 1399.468 C 3919.455 1401.334 3920.509 1402.961 3921.962 1404.081 L 3922.082 1404.174 C 3922.322 1404.348 3922.575 1404.521 3922.829 1404.668 L 3922.909 1404.721 L 3922.895 1404.708 C 3924.029 1405.348 3925.349 1405.734 3926.749 1405.734 L 4011.309 1405.734 C 4015.629 1405.734 4019.135 1402.214 4019.135 1397.894 C 4019.135 1395.614 4018.162 1393.561 4016.602 1392.134" style="fill:#FFFFFF;fill-opacity:1;fill-rule:nonzero;stroke:none" id="path194" transform="matrix(1, 0, 0, 1, 0, -2.2737367544323206e-13)"/>
</svg>