<?xml version="1.0" encoding="utf-8"?>
<svg viewBox="3623.2029 1296.02 95.0532 117.1539" xmlns="http://www.w3.org/2000/svg">
  <path d="M 3647.163 1379.508 C 3647.016 1379.454 3646.87 1379.414 3646.723 1379.361 C 3644.843 1378.654 3642.79 1378.254 3640.656 1378.254 C 3634.27 1378.254 3628.696 1381.681 3625.656 1386.801 C 3624.096 1389.401 3623.203 1392.454 3623.203 1395.708 C 3623.203 1396.054 3623.216 1396.388 3623.23 1396.721 L 3623.243 1396.854 C 3623.256 1397.134 3623.283 1397.414 3623.323 1397.708 L 3623.35 1397.921 C 3623.376 1398.174 3623.416 1398.428 3623.456 1398.668 L 3623.496 1398.908 C 3623.55 1399.161 3623.603 1399.401 3623.656 1399.641 L 3623.696 1399.854 C 3623.763 1400.121 3623.843 1400.401 3623.923 1400.668 L 3623.95 1400.774 C 3624.23 1401.708 3624.59 1402.601 3625.016 1403.468 L 3625.07 1403.574 C 3625.203 1403.828 3625.336 1404.068 3625.47 1404.308 L 3625.536 1404.428 C 3625.683 1404.681 3625.83 1404.921 3625.976 1405.148 L 3626.03 1405.228 C 3629.15 1410.014 3634.536 1413.174 3640.656 1413.174 C 3650.296 1413.174 3658.11 1405.348 3658.11 1395.708 L 3658.11 1348.414 L 3707.296 1329.856 L 3707.296 1331.409 L 3707.296 1331.41 L 3707.296 1370.774 C 3705.296 1369.974 3703.096 1369.521 3700.803 1369.521 C 3693.869 1369.521 3687.883 1373.561 3685.069 1379.414 C 3683.963 1381.708 3683.336 1384.268 3683.336 1386.988 C 3683.336 1387.334 3683.349 1387.668 3683.376 1388.001 L 3683.376 1388.081 C 3683.403 1388.388 3683.429 1388.681 3683.456 1388.988 L 3683.483 1389.161 C 3683.523 1389.428 3683.549 1389.694 3683.603 1389.961 L 3683.629 1390.161 C 3683.683 1390.428 3683.736 1390.694 3683.803 1390.948 L 3683.829 1391.108 C 3683.909 1391.401 3683.989 1391.694 3684.069 1392.001 L 3684.083 1392.014 C 3684.376 1392.974 3684.736 1393.894 3685.176 1394.774 C 3685.323 1395.068 3685.469 1395.348 3685.629 1395.628 L 3685.643 1395.641 C 3688.656 1400.894 3694.309 1404.441 3700.803 1404.441 C 3710.443 1404.441 3718.256 1396.628 3718.256 1386.988 C 3718.256 1386.641 3718.243 1386.294 3718.216 1385.948 L 3718.256 1385.948 L 3718.256 1323.2 L 3718.256 1297.578 L 3718.256 1297.577 L 3718.256 1296.02 L 3647.163 1322.846 L 3647.163 1379.508" style="fill:#FFFFFF;fill-opacity:1;fill-rule:nonzero;stroke:none" id="path196" transform="matrix(0.9999999999999999, 0, 0, 0.9999999999999999, 0, 0)"/>
</svg>