<?xml version="1.0" encoding="utf-8"?>
<svg viewBox="3646.9099 985.3522 81.6389 87.6478" xmlns="http://www.w3.org/2000/svg">
  <path d="M 3649.896 1053.599 L 3710.656 992.841 L 3710.656 990.435 C 3710.656 988.602 3709.723 987.093 3708.376 986.205 L 3708.389 986.206 L 3708.309 986.158 C 3708.189 986.085 3708.069 986.018 3707.949 985.953 L 3707.736 985.838 C 3707.616 985.782 3707.496 985.734 3707.376 985.689 L 3707.123 985.595 C 3707.003 985.557 3706.883 985.527 3706.749 985.497 L 3706.483 985.433 C 3706.363 985.411 3706.229 985.398 3706.109 985.385 L 3705.829 985.355 C 3705.696 985.349 3705.576 985.354 3705.443 985.357 L 3705.163 985.365 C 3705.029 985.375 3704.883 985.401 3704.749 985.423 L 3704.483 985.466 C 3704.323 985.502 3704.163 985.555 3704.003 985.609 L 3703.816 985.663 C 3703.603 985.747 3703.376 985.846 3703.163 985.963 L 3695.203 990.263 L 3677.683 999.734 C 3677.496 999.838 3677.296 999.929 3677.096 1000.007 C 3676.51 1000.231 3675.896 1000.349 3675.27 1000.349 L 3651.99 1000.349 C 3649.176 1000.349 3646.91 1002.625 3646.91 1005.431 L 3646.91 1048.969 C 3646.91 1051.03 3648.136 1052.803 3649.896 1053.599" style="fill:#FFFFFF;fill-opacity:1;fill-rule:nonzero;stroke:none" id="path174"/>
  <path d="M 3685.789 1050.793 L 3680.429 1056.147 L 3680.429 1056.149 L 3685.709 1059.001 L 3703.163 1068.439 L 3703.376 1068.538 C 3703.523 1068.608 3703.669 1068.682 3703.816 1068.736 L 3703.976 1068.784 C 3707.176 1069.86 3710.656 1067.51 3710.656 1063.966 L 3710.656 1028.519 L 3710.656 1028.517 L 3710.656 1025.926 L 3710.656 1025.929 L 3710.656 1025.922 L 3685.789 1050.793" style="fill:#FFFFFF;fill-opacity:1;fill-rule:nonzero;stroke:none" id="path176"/>
  <path d="M 3727.589 992.458 L 3727.349 992.27 L 3727.376 992.27 L 3727.243 992.178 L 3726.936 991.97 L 3726.683 991.831 L 3726.389 991.701 L 3726.069 991.609 L 3725.803 991.542 L 3725.443 991.509 L 3725.189 991.495 C 3725.056 991.498 3724.936 991.515 3724.816 991.531 L 3724.576 991.563 C 3724.443 991.59 3724.323 991.634 3724.203 991.675 L 3723.976 991.747 C 3723.843 991.802 3723.723 991.874 3723.603 991.947 L 3723.416 992.045 C 3723.243 992.163 3723.069 992.299 3722.909 992.455 L 3722.909 992.458 L 3647.99 1067.375 C 3647.536 1067.83 3647.256 1068.386 3647.123 1068.97 C 3647.07 1069.214 3647.03 1069.463 3647.03 1069.714 C 3647.03 1070.294 3647.19 1070.868 3647.496 1071.382 L 3647.576 1071.53 L 3647.71 1071.7 L 3647.99 1072.044 L 3648.003 1072.055 C 3648.163 1072.203 3648.323 1072.334 3648.483 1072.447 L 3648.656 1072.543 C 3648.776 1072.616 3648.896 1072.686 3649.03 1072.742 L 3649.243 1072.815 C 3649.363 1072.859 3649.483 1072.898 3649.603 1072.924 L 3649.843 1072.967 L 3650.043 1073 L 3650.03 1072.983 C 3650.976 1073.071 3651.936 1072.767 3652.67 1072.044 L 3727.589 997.127 C 3728.869 995.838 3728.869 993.747 3727.589 992.458" style="fill:#FFFFFF;fill-opacity:1;fill-rule:nonzero;stroke:none" id="path178"/>
</svg>