<?xml version="1.0" encoding="utf-8"?>
<svg viewBox="3924.7351 656.875 89.3599 83.724" xmlns="http://www.w3.org/2000/svg">
  <path d="M 3924.735 731.463 C 3924.735 731.735 3924.762 731.995 3924.802 732.249 L 3924.842 732.412 C 3924.895 732.645 3924.949 732.871 3925.042 733.087 L 3925.055 733.14 C 3925.162 733.384 3925.282 733.613 3925.415 733.829 L 3925.455 733.884 C 3925.589 734.085 3925.735 734.273 3925.895 734.449 L 3925.935 734.493 C 3926.295 734.871 3926.709 735.18 3927.175 735.412 L 3927.202 735.423 C 3928.429 736.036 3929.949 736.091 3931.322 735.319 L 3990.815 701.816 C 3993.815 700.124 3993.815 695.798 3990.815 694.104 L 3931.642 660.778 L 3931.655 660.779 L 3931.322 660.591 C 3928.375 658.932 3924.735 661.06 3924.735 664.448 L 3924.735 731.448 L 3924.735 731.452 L 3924.735 731.463" style="fill:#FFFFFF;fill-opacity:1;fill-rule:nonzero;stroke:none" id="path148" transform="matrix(1, 0, 0, 1, 4.547473508864641e-13, 1.1368683772161603e-13)"/>
  <path d="M 4008.349 657.268 L 4008.282 657.25 C 4008.042 657.174 4007.802 657.11 4007.549 657.058 L 4007.509 657.051 C 4006.975 656.944 4006.429 656.875 4005.882 656.875 C 4001.335 656.875 3997.655 660.552 3997.655 665.09 L 3997.655 732.371 L 3997.655 732.379 L 3997.655 732.384 L 3997.655 732.413 C 3997.669 732.665 3997.682 732.913 3997.695 733.157 L 3997.749 733.483 C 3997.762 733.627 3997.775 733.771 3997.802 733.911 C 3997.829 734.039 3997.869 734.165 3997.895 734.291 L 3997.975 734.635 C 3998.015 734.771 3998.069 734.907 3998.109 735.04 L 3998.215 735.32 C 3998.269 735.465 3998.322 735.608 3998.389 735.749 L 3998.482 735.952 C 3998.562 736.111 3998.642 736.268 3998.722 736.42 L 3998.749 736.457 C 3999.309 737.441 4000.069 738.293 4000.975 738.968 L 4000.975 738.969 C 4002.349 739.988 4004.042 740.599 4005.882 740.599 C 4010.415 740.599 4014.095 736.92 4014.095 732.384 L 4014.095 665.102 C 4014.095 661.914 4012.269 659.156 4009.615 657.795 L 4009.682 657.806 C 4009.255 657.586 4008.815 657.414 4008.349 657.268" style="fill:#FFFFFF;fill-opacity:1;fill-rule:nonzero;stroke:none" id="path150" transform="matrix(1, 0, 0, 1, 4.547473508864641e-13, 1.1368683772161603e-13)"/>
</svg>