<?xml version="1.0" encoding="utf-8"?>
<svg viewBox="3056.2581 327.377 78.48 83.716" xmlns="http://www.w3.org/2000/svg">
  <path d="M 3056.311 399.63 C 3056.325 399.79 3056.351 399.95 3056.378 400.117 C 3056.405 400.336 3056.431 400.55 3056.471 400.765 C 3056.498 400.928 3056.538 401.089 3056.565 401.25 C 3056.618 401.481 3056.685 401.709 3056.738 401.934 C 3056.778 402.065 3056.805 402.197 3056.845 402.325 C 3056.951 402.653 3057.071 402.976 3057.205 403.292 C 3057.258 403.429 3057.325 403.564 3057.391 403.7 C 3057.485 403.9 3057.578 404.098 3057.671 404.293 C 3057.751 404.432 3057.818 404.568 3057.898 404.702 C 3058.005 404.901 3058.125 405.096 3058.245 405.286 L 3058.471 405.628 C 3058.658 405.912 3058.871 406.186 3059.085 406.453 L 3059.325 406.724 C 3059.485 406.909 3059.645 407.09 3059.818 407.266 L 3060.111 407.565 C 3060.285 407.728 3060.458 407.886 3060.631 408.038 L 3060.938 408.296 C 3061.205 408.514 3061.485 408.726 3061.778 408.921 L 3061.991 409.057 C 3062.218 409.208 3062.458 409.353 3062.698 409.49 C 3062.831 409.56 3062.951 409.624 3063.085 409.689 C 3063.285 409.793 3063.485 409.892 3063.698 409.985 C 3063.831 410.046 3063.965 410.108 3064.098 410.164 L 3064.245 410.225 L 3064.205 410.202 C 3065.645 410.77 3067.205 411.093 3068.831 411.093 C 3075.778 411.093 3081.418 405.461 3081.418 398.51 L 3081.418 339.964 C 3081.418 335.431 3079.018 331.471 3075.431 329.257 L 3075.471 329.271 C 3075.338 329.191 3075.191 329.111 3075.058 329.031 L 3074.765 328.871 C 3074.458 328.697 3074.151 328.551 3073.831 328.417 L 3073.551 328.311 C 3073.285 328.191 3073.018 328.097 3072.738 328.004 L 3072.485 327.924 C 3072.138 327.817 3071.778 327.724 3071.418 327.644 L 3071.231 327.617 C 3070.925 327.551 3070.605 327.511 3070.298 327.471 L 3069.978 327.444 C 3069.605 327.404 3069.231 327.377 3068.845 327.377 L 3068.831 327.377 C 3066.285 327.377 3063.911 328.151 3061.925 329.457 L 3061.805 329.524 L 3061.685 329.617 C 3058.405 331.897 3056.258 335.671 3056.258 339.964 L 3056.258 398.51 L 3056.271 398.777 C 3056.285 399.07 3056.298 399.35 3056.311 399.63" style="fill:#FFFFFF;fill-opacity:1;fill-rule:nonzero;stroke:none" id="path138" transform="matrix(1, 0, 0, 1, 4.547473508864641e-13, 0)"/>
  <path d="M 3109.644 399.67 C 3109.644 399.79 3109.671 399.924 3109.684 400.041 C 3109.711 400.306 3109.751 400.568 3109.804 400.826 C 3109.831 400.954 3109.844 401.081 3109.871 401.206 C 3109.938 401.498 3110.018 401.785 3110.098 402.068 L 3110.164 402.296 C 3110.271 402.645 3110.391 402.986 3110.538 403.321 L 3110.671 403.629 C 3110.778 403.866 3110.884 404.101 3111.004 404.33 L 3111.191 404.67 C 3111.324 404.9 3111.458 405.124 3111.604 405.342 L 3111.778 405.612 C 3111.978 405.905 3112.191 406.189 3112.418 406.462 L 3112.618 406.694 C 3112.778 406.893 3112.964 407.086 3113.138 407.273 L 3113.431 407.561 C 3113.604 407.725 3113.778 407.882 3113.951 408.036 L 3114.258 408.298 C 3114.511 408.501 3114.764 408.693 3115.031 408.876 L 3115.364 409.092 C 3115.578 409.226 3115.791 409.357 3116.004 409.478 C 3116.151 409.558 3116.298 409.633 3116.431 409.708 C 3116.618 409.797 3116.791 409.884 3116.978 409.966 C 3117.138 410.037 3117.298 410.109 3117.458 410.174 L 3117.564 410.225 L 3117.538 410.206 C 3118.978 410.772 3120.524 411.093 3122.151 411.093 C 3129.098 411.093 3134.738 405.461 3134.738 398.51 L 3134.738 339.964 C 3134.738 335.431 3132.324 331.471 3128.738 329.257 L 3128.791 329.271 C 3128.644 329.177 3128.484 329.097 3128.324 329.004 L 3128.098 328.871 C 3127.791 328.711 3127.484 328.564 3127.164 328.417 L 3126.858 328.297 C 3126.604 328.191 3126.351 328.097 3126.084 328.017 L 3125.804 327.924 C 3125.458 327.817 3125.098 327.724 3124.751 327.644 L 3124.538 327.617 C 3124.231 327.551 3123.924 327.511 3123.604 327.471 L 3123.311 327.444 C 3122.924 327.404 3122.551 327.377 3122.164 327.377 L 3122.151 327.377 C 3115.204 327.377 3109.578 333.017 3109.578 339.964 L 3109.578 398.51 L 3109.578 398.55 C 3109.578 398.924 3109.604 399.297 3109.644 399.67" style="fill:#FFFFFF;fill-opacity:1;fill-rule:nonzero;stroke:none" id="path140" transform="matrix(1, 0, 0, 1, 4.547473508864641e-13, 0)"/>
</svg>