<?xml version="1.0" encoding="utf-8"?>
<svg viewBox="3355.9641 330.5111 68.3396 75.8738" xmlns="http://www.w3.org/2000/svg">
  <path d="M 3356.07 402.902 C 3356.124 403.14 3356.19 403.368 3356.27 403.586 L 3356.297 403.633 C 3356.39 403.877 3356.51 404.108 3356.657 404.326 L 3356.684 404.374 C 3356.817 404.578 3356.964 404.769 3357.137 404.946 L 3357.164 404.986 C 3357.524 405.365 3357.95 405.674 3358.417 405.908 L 3358.43 405.917 C 3359.67 406.53 3361.19 406.586 3362.564 405.813 L 3422.044 372.31 C 3425.057 370.617 3425.057 366.297 3422.044 364.604 L 3362.87 331.271 L 3362.897 331.271 L 3362.564 331.084 C 3359.604 329.431 3355.964 331.551 3355.964 334.937 L 3355.964 334.951 L 3355.964 401.942 L 3355.964 401.957 C 3355.964 402.23 3355.99 402.492 3356.044 402.748 L 3356.07 402.902" style="fill:#FFFFFF;fill-opacity:1;fill-rule:nonzero;stroke:none" id="path142"/>
</svg>