<?xml version="1.0" encoding="utf-8"?>
<svg viewBox="3633.27 655.87 89.3589 83.723" xmlns="http://www.w3.org/2000/svg">
  <path d="M 3654.323 699.078 C 3654.483 700.388 3655.23 701.635 3656.536 702.376 L 3716.029 735.879 C 3718.976 737.54 3722.629 735.408 3722.629 732.023 L 3722.629 665.018 C 3722.629 663.42 3721.803 662.111 3720.643 661.338 L 3720.669 661.339 L 3720.469 661.224 L 3720.389 661.176 C 3720.243 661.092 3720.096 661.018 3719.936 660.95 L 3719.923 660.944 C 3718.736 660.431 3717.323 660.424 3716.029 661.151 L 3656.536 694.651 C 3654.843 695.607 3654.11 697.395 3654.323 699.078" style="fill:#FFFFFF;fill-opacity:1;fill-rule:nonzero;stroke:none" id="path152"/>
  <path d="M 3643.976 656.27 L 3643.87 656.239 C 3643.643 656.168 3643.403 656.106 3643.163 656.055 L 3643.083 656.042 C 3642.563 655.939 3642.03 655.87 3641.483 655.87 C 3636.936 655.87 3633.27 659.547 3633.27 664.084 L 3633.27 731.367 L 3633.283 731.623 C 3633.35 734.201 3634.616 736.476 3636.536 737.929 L 3636.55 737.939 C 3637.923 738.973 3639.63 739.593 3641.483 739.593 C 3646.016 739.593 3649.696 735.916 3649.696 731.379 L 3649.696 664.096 C 3649.696 660.903 3647.87 658.142 3645.203 656.782 L 3645.27 656.794 C 3644.856 656.58 3644.416 656.412 3643.976 656.27" style="fill:#FFFFFF;fill-opacity:1;fill-rule:nonzero;stroke:none" id="path154"/>
</svg>