<?xml version="1.0" encoding="utf-8"?>
<svg viewBox="3344.3101 985.3975 84.947 83.7031" xmlns="http://www.w3.org/2000/svg">
  <path d="M 3416.39 1043.603 L 3416.35 1043.673 C 3416.23 1043.823 3416.124 1043.979 3416.044 1044.142 L 3415.95 1044.362 C 3415.897 1044.482 3415.83 1044.603 3415.79 1044.729 L 3415.737 1044.95 C 3415.71 1045.082 3415.67 1045.211 3415.657 1045.346 L 3415.644 1045.55 L 3415.617 1045.835 L 3415.63 1045.957 L 3415.657 1046.269 L 3415.71 1046.613 L 3415.804 1046.939 L 3415.91 1047.247 L 3416.084 1047.582 L 3416.23 1047.849 L 3416.43 1048.094 L 3416.67 1048.386 C 3416.857 1048.567 3417.057 1048.718 3417.257 1048.853 L 3417.364 1048.917 C 3417.537 1049.019 3417.71 1049.106 3417.897 1049.178 L 3418.057 1049.237 C 3418.23 1049.298 3418.417 1049.343 3418.59 1049.375 L 3418.737 1049.403 L 3418.817 1049.419 L 3418.804 1049.407 C 3420.004 1049.547 3421.244 1049.099 3422.057 1048.07 C 3426.564 1042.337 3429.257 1035.106 3429.257 1027.246 C 3429.257 1019.385 3426.564 1012.154 3422.057 1006.421 C 3421.884 1006.201 3421.684 1006.01 3421.484 1005.842 C 3421.31 1005.697 3421.11 1005.577 3420.91 1005.473 L 3420.71 1005.382 C 3420.564 1005.317 3420.43 1005.259 3420.27 1005.214 L 3420.03 1005.15 C 3419.884 1005.119 3419.75 1005.097 3419.604 1005.083 L 3419.337 1005.061 L 3419.23 1005.051 L 3418.95 1005.078 L 3418.617 1005.109 C 3418.484 1005.134 3418.337 1005.175 3418.204 1005.215 L 3417.937 1005.297 C 3417.764 1005.363 3417.59 1005.451 3417.43 1005.546 L 3417.27 1005.625 C 3417.07 1005.761 3416.857 1005.919 3416.67 1006.107 C 3415.977 1006.802 3415.63 1007.713 3415.63 1008.633 C 3415.63 1009.307 3415.817 1009.977 3416.19 1010.574 L 3416.39 1010.887 C 3418.097 1013.047 3419.43 1015.438 3420.377 1017.978 C 3421.47 1020.905 3422.044 1024.03 3422.044 1027.246 C 3422.044 1033.254 3420.057 1038.957 3416.39 1043.603" style="fill:#FFFFFF;fill-opacity:1;fill-rule:nonzero;stroke:none" id="path170"/>
  <path d="M 3405.67 986.181 L 3405.404 986.029 L 3405.11 985.87 L 3404.817 985.753 L 3404.497 985.635 L 3404.19 985.551 L 3403.87 985.477 L 3403.537 985.431 L 3403.23 985.401 C 3403.097 985.394 3402.977 985.399 3402.844 985.402 L 3402.564 985.41 C 3402.417 985.421 3402.27 985.449 3402.124 985.474 L 3401.897 985.51 C 3401.71 985.55 3401.537 985.605 3401.364 985.665 L 3401.217 985.707 C 3401.004 985.791 3400.777 985.89 3400.55 986.009 L 3397.47 987.681 L 3375.084 999.778 C 3374.83 999.917 3374.564 1000.022 3374.297 1000.114 C 3373.777 1000.293 3373.23 1000.394 3372.67 1000.394 L 3349.39 1000.394 C 3346.577 1000.394 3344.31 1002.67 3344.31 1005.477 L 3344.31 1049.014 C 3344.31 1049.306 3344.337 1049.589 3344.377 1049.866 L 3344.39 1049.939 C 3344.444 1050.207 3344.51 1050.467 3344.604 1050.718 L 3344.63 1050.807 C 3344.724 1051.058 3344.844 1051.301 3344.977 1051.53 L 3345.004 1051.577 C 3345.284 1052.057 3345.644 1052.487 3346.057 1052.851 L 3346.07 1052.866 C 3346.284 1053.045 3346.51 1053.203 3346.737 1053.347 L 3346.79 1053.377 C 3347.017 1053.518 3347.27 1053.641 3347.524 1053.741 L 3347.564 1053.754 C 3348.137 1053.974 3348.75 1054.097 3349.39 1054.097 L 3372.67 1054.097 C 3373.51 1054.097 3374.337 1054.307 3375.084 1054.709 L 3400.55 1068.482 C 3403.937 1070.312 3408.057 1067.862 3408.057 1064.01 L 3408.057 990.481 C 3408.057 988.646 3407.124 987.138 3405.777 986.25 L 3405.804 986.253 L 3405.67 986.181" style="fill:#FFFFFF;fill-opacity:1;fill-rule:nonzero;stroke:none" id="path172"/>
</svg>