<?xml version="1.0" encoding="utf-8"?>
<svg viewBox="3030.498 985.3975 127.9199 83.7031" xmlns="http://www.w3.org/2000/svg">
  <path d="M 3108.258 1048.07 C 3112.764 1042.337 3115.458 1035.106 3115.458 1027.246 C 3115.458 1019.385 3112.764 1012.154 3108.258 1006.421 C 3108.084 1006.201 3107.884 1006.01 3107.684 1005.842 C 3107.511 1005.697 3107.311 1005.577 3107.111 1005.471 L 3106.924 1005.385 C 3106.778 1005.318 3106.631 1005.259 3106.471 1005.214 L 3106.231 1005.151 C 3106.084 1005.119 3105.938 1005.097 3105.804 1005.082 L 3105.538 1005.061 L 3105.431 1005.051 L 3105.151 1005.078 L 3104.818 1005.109 C 3104.684 1005.133 3104.551 1005.174 3104.404 1005.214 L 3104.124 1005.297 C 3103.964 1005.362 3103.804 1005.449 3103.644 1005.539 L 3103.471 1005.626 C 3103.258 1005.762 3103.058 1005.919 3102.871 1006.107 C 3102.258 1006.722 3101.924 1007.509 3101.844 1008.318 C 3101.764 1009.171 3101.991 1010.046 3102.524 1010.779 L 3102.591 1010.887 C 3103.538 1012.086 3104.364 1013.358 3105.084 1014.685 C 3107.138 1018.499 3108.231 1022.787 3108.231 1027.246 C 3108.231 1033.254 3106.258 1038.957 3102.591 1043.603 L 3102.498 1043.747 C 3102.404 1043.874 3102.324 1044.003 3102.244 1044.139 L 3102.138 1044.387 L 3101.991 1044.725 L 3101.938 1044.966 C 3101.911 1045.09 3101.871 1045.214 3101.858 1045.341 L 3101.844 1045.563 L 3101.818 1045.835 L 3101.831 1045.95 L 3101.858 1046.283 L 3101.911 1046.609 L 3102.018 1046.957 L 3102.111 1047.243 C 3102.164 1047.366 3102.231 1047.483 3102.298 1047.602 L 3102.431 1047.846 L 3102.658 1048.126 L 3102.871 1048.386 C 3103.058 1048.567 3103.258 1048.717 3103.458 1048.851 L 3103.578 1048.919 C 3103.738 1049.019 3103.911 1049.106 3104.098 1049.177 L 3104.258 1049.237 C 3104.431 1049.298 3104.604 1049.343 3104.791 1049.374 L 3104.938 1049.405 L 3105.018 1049.419 L 3105.004 1049.407 C 3106.204 1049.547 3107.444 1049.099 3108.258 1048.07" style="fill:#FFFFFF;fill-opacity:1;fill-rule:nonzero;stroke:none" id="path162"/>
  <path d="M 3125.684 1057.822 C 3132.671 1049.575 3136.884 1038.903 3136.884 1027.246 C 3136.884 1015.587 3132.671 1004.917 3125.684 996.669 C 3125.524 996.483 3125.351 996.323 3125.178 996.179 L 3125.191 996.181 L 3125.151 996.155 L 3124.978 996.045 C 3124.844 995.945 3124.698 995.851 3124.538 995.774 L 3124.324 995.682 C 3124.178 995.621 3124.031 995.565 3123.884 995.523 L 3123.644 995.469 C 3123.498 995.438 3123.351 995.417 3123.204 995.405 L 3122.951 995.393 C 3122.804 995.393 3122.658 995.401 3122.511 995.418 L 3122.244 995.454 C 3122.111 995.479 3121.978 995.519 3121.844 995.561 L 3121.564 995.651 C 3121.444 995.702 3121.324 995.769 3121.204 995.834 L 3120.938 995.983 C 3120.804 996.066 3120.698 996.167 3120.578 996.265 L 3120.378 996.437 L 3120.364 996.437 L 3120.364 996.438 C 3119.044 997.759 3118.938 999.881 3120.151 1001.305 C 3126.311 1008.541 3129.671 1017.633 3129.671 1027.247 C 3129.671 1036.323 3126.671 1044.937 3121.151 1051.971 C 3120.831 1052.381 3120.498 1052.787 3120.151 1053.187 C 3120.004 1053.363 3119.871 1053.554 3119.764 1053.751 C 3118.991 1055.129 3119.204 1056.898 3120.364 1058.055 L 3120.378 1058.055 L 3120.418 1058.094 C 3120.578 1058.246 3120.738 1058.378 3120.911 1058.495 L 3121.124 1058.614 C 3121.258 1058.694 3121.391 1058.765 3121.538 1058.825 L 3121.751 1058.906 C 3121.911 1058.963 3122.084 1059.006 3122.258 1059.038 L 3122.391 1059.067 L 3122.498 1059.087 L 3122.471 1059.073 C 3123.644 1059.214 3124.858 1058.797 3125.684 1057.822" style="fill:#FFFFFF;fill-opacity:1;fill-rule:nonzero;stroke:none" id="path164"/>
  <path d="M 3143.151 1067.628 C 3152.658 1056.867 3158.418 1042.73 3158.418 1027.246 C 3158.418 1011.761 3152.658 997.623 3143.151 986.863 C 3143.018 986.705 3142.858 986.574 3142.698 986.447 L 3142.711 986.447 L 3142.671 986.422 L 3142.338 986.198 L 3142.071 986.043 L 3141.751 985.906 L 3141.418 985.795 L 3141.111 985.726 C 3140.978 985.703 3140.858 985.689 3140.724 985.679 L 3140.444 985.669 C 3140.298 985.669 3140.164 985.681 3140.031 985.697 L 3139.764 985.735 C 3139.618 985.765 3139.471 985.809 3139.324 985.859 L 3139.111 985.929 C 3138.938 985.998 3138.778 986.086 3138.618 986.183 L 3138.484 986.253 C 3138.284 986.385 3138.098 986.535 3137.911 986.713 L 3137.911 986.717 L 3137.911 986.718 C 3137.218 987.407 3136.871 988.307 3136.871 989.213 C 3136.844 990.087 3137.151 990.97 3137.778 991.674 C 3138.911 992.963 3139.978 994.306 3140.978 995.687 C 3142.818 998.215 3144.431 1000.897 3145.791 1003.717 C 3146.204 1004.566 3146.604 1005.422 3146.978 1006.295 C 3148.004 1008.725 3148.844 1011.21 3149.498 1013.742 C 3150.631 1018.122 3151.204 1022.639 3151.204 1027.246 C 3151.204 1032.014 3150.578 1036.686 3149.364 1041.207 C 3148.724 1043.579 3147.938 1045.911 3146.978 1048.191 C 3146.431 1049.467 3145.844 1050.715 3145.218 1051.939 C 3144.044 1054.197 3142.724 1056.359 3141.258 1058.422 C 3140.164 1059.939 3139.018 1061.409 3137.778 1062.811 C 3137.164 1063.498 3136.871 1064.348 3136.871 1065.196 C 3136.858 1066.131 3137.204 1067.063 3137.911 1067.772 L 3137.911 1067.774 L 3137.978 1067.826 C 3138.124 1067.968 3138.284 1068.095 3138.444 1068.207 L 3138.671 1068.335 C 3138.791 1068.408 3138.911 1068.474 3139.044 1068.53 L 3139.298 1068.627 C 3139.431 1068.67 3139.551 1068.703 3139.684 1068.732 L 3139.964 1068.788 L 3140.044 1068.806 L 3140.044 1068.794 C 3141.164 1068.93 3142.338 1068.548 3143.151 1067.628" style="fill:#FFFFFF;fill-opacity:1;fill-rule:nonzero;stroke:none" id="path166"/>
  <path d="M 3030.591 1049.934 C 3030.645 1050.206 3030.711 1050.47 3030.805 1050.725 L 3030.831 1050.801 C 3030.925 1051.055 3031.045 1051.301 3031.178 1051.534 L 3031.205 1051.57 C 3031.485 1052.055 3031.845 1052.49 3032.271 1052.857 L 3032.271 1052.863 C 3032.485 1053.043 3032.711 1053.205 3032.938 1053.35 L 3032.991 1053.375 C 3033.218 1053.517 3033.471 1053.641 3033.725 1053.742 L 3033.765 1053.753 C 3034.325 1053.973 3034.938 1054.097 3035.591 1054.097 L 3058.871 1054.097 C 3059.711 1054.097 3060.538 1054.307 3061.285 1054.709 L 3086.751 1068.482 C 3090.138 1070.312 3094.258 1067.862 3094.258 1064.01 L 3094.258 990.481 C 3094.258 988.646 3093.325 987.138 3091.978 986.25 L 3092.005 986.253 L 3091.871 986.178 L 3091.618 986.03 L 3091.298 985.869 L 3091.031 985.754 L 3090.698 985.634 L 3090.405 985.553 L 3090.071 985.475 L 3089.738 985.431 L 3089.431 985.401 C 3089.298 985.394 3089.165 985.399 3089.045 985.402 L 3088.765 985.41 C 3088.618 985.422 3088.471 985.449 3088.311 985.474 L 3088.098 985.51 C 3087.911 985.551 3087.725 985.607 3087.538 985.671 L 3087.431 985.706 C 3087.205 985.791 3086.978 985.89 3086.751 986.009 L 3081.618 988.787 L 3061.285 999.778 C 3061.058 999.905 3060.818 1000.005 3060.565 1000.093 C 3060.018 1000.287 3059.445 1000.394 3058.871 1000.394 L 3035.591 1000.394 C 3032.778 1000.394 3030.498 1002.67 3030.498 1005.477 L 3030.498 1049.014 C 3030.498 1049.307 3030.538 1049.595 3030.578 1049.875 L 3030.591 1049.934" style="fill:#FFFFFF;fill-opacity:1;fill-rule:nonzero;stroke:none" id="path168"/>
</svg>