<svg xmlns="http://www.w3.org/2000/svg" viewBox="0 0 50 50"><path d="M 44.652344 19.726563 C 44.109375 17.667969 43.601563 15.722656 43.601563 13 C 43.601563 9.609375 45.851563 5.527344 45.871094 5.488281 C 46.089844 5.097656 46.023438 4.609375 45.707031 4.292969 L 41.707031 0.292969 C 41.332031 -0.0820313 40.667969 -0.0820313 40.292969 0.292969 C 38.988281 1.597656 36.085938 2.4375 32.894531 2.4375 C 29.785156 2.4375 27.03125 1.617188 25.707031 0.292969 C 25.316406 -0.0976563 24.683594 -0.0976563 24.292969 0.292969 C 22.96875 1.617188 20.214844 2.4375 17.109375 2.4375 C 13.914063 2.4375 11.011719 1.597656 9.707031 0.292969 C 9.316406 -0.0976563 8.683594 -0.0976563 8.292969 0.292969 L 4.292969 4.292969 C 3.976563 4.609375 3.910156 5.097656 4.128906 5.488281 C 4.148438 5.527344 6.398438 9.597656 6.398438 13 C 6.398438 15.78125 5.886719 17.730469 5.34375 19.792969 C 4.714844 22.179688 4 24.882813 4 29.199219 C 4 41.386719 15.121094 45.871094 21.097656 48.28125 C 22.574219 48.878906 23.851563 49.394531 24.402344 49.804688 C 24.582031 49.933594 24.789063 50 25 50 C 25.210938 50 25.417969 49.933594 25.597656 49.804688 C 26.148438 49.394531 27.425781 48.878906 28.902344 48.28125 C 34.878906 45.871094 46 41.386719 46 29.199219 C 46 24.867188 45.28125 22.136719 44.652344 19.726563 Z M 32.101563 34.699219 L 25 30.601563 L 17.898438 34.699219 L 19.601563 26.699219 L 13.5 21.300781 L 21.601563 20.5 L 25 13 L 28.300781 20.5 L 36.402344 21.300781 L 30.300781 26.699219 Z"></path></svg>