<svg xmlns="http://www.w3.org/2000/svg" viewBox="0 0 30 30">    <path d="M 8 1 C 8 1 6 3.895 6 5 C 6 6.105 6.895 7 8 7 C 9.105 7 10 6.105 10 5 C 10 3.895 8 1 8 1 z M 15 1 C 15 1 13 3.895 13 5 C 13 6.105 13.895 7 15 7 C 16.105 7 17 6.105 17 5 C 17 3.895 15 1 15 1 z M 22 1 C 22 1 20 3.895 20 5 C 20 6.105 20.895 7 22 7 C 23.105 7 24 6.105 24 5 C 24 3.895 22 1 22 1 z M 6 9 L 6 13.144531 C 4.2841988 13.5944 3 15.149665 3 17 C 3 18.000183 3.3858006 18.907473 4 19.611328 L 4 24 C 4 25.105 4.895 26 6 26 L 24 26 C 25.105 26 26 25.105 26 24 L 26 19.611328 C 26.614199 18.907473 27 18.000183 27 17 C 27 15.149665 25.715801 13.5944 24 13.144531 L 24 9 L 20 9 L 20 13 L 17 13 L 17 9 L 13 9 L 13 13 L 10 13 L 10 9 L 6 9 z M 7 15 L 23 15 C 24.116666 15 25 15.883334 25 17 C 25 18.116666 24.116666 19 23 19 C 22.487067 19 22.033912 18.806244 21.669922 18.478516 L 21 17.875 L 20.330078 18.478516 C 19.966088 18.806244 19.512933 19 19 19 C 18.487067 19 18.033912 18.806244 17.669922 18.478516 L 17 17.875 L 16.330078 18.478516 C 15.966088 18.806244 15.512933 19 15 19 C 14.487067 19 14.033912 18.806244 13.669922 18.478516 L 13 17.875 L 12.330078 18.478516 C 11.966088 18.806244 11.512933 19 11 19 C 10.487067 19 10.033912 18.806244 9.6699219 18.478516 L 9 17.875 L 8.3300781 18.478516 C 7.9660876 18.806244 7.5129326 19 7 19 C 5.8833339 19 5 18.116666 5 17 C 5 15.883334 5.8833339 15 7 15 z"></path></svg>