<svg xmlns="http://www.w3.org/2000/svg" viewBox="0 0 30 30">    <path d="M12.111,21.225c0.238-0.406,0.233-0.905-0.007-1.309l-1.219-2.046c-0.273-0.458-0.241-1.03,0.087-1.45 c0.567-0.726,1.521-1.895,2.538-2.912c1.017-1.017,2.186-1.971,2.912-2.538c0.42-0.328,0.992-0.36,1.45-0.087l2.046,1.219 c0.404,0.241,0.907,0.243,1.313,0.005l5.129-3.003c0.496-0.291,0.74-0.869,0.603-1.428c-0.133-0.543-0.455-1.248-1.194-1.987 c-2.314-2.314-6.217-3.543-14.919,5.159S3.376,23.454,5.69,25.768c0.741,0.741,1.447,1.062,1.991,1.195 c0.558,0.135,1.132-0.105,1.422-0.6C9.826,25.127,11.387,22.461,12.111,21.225z"></path></svg>