<svg xmlns="http://www.w3.org/2000/svg" viewBox="0 0 50 50">    <path d="M 3 12 C 1.35 12 0 13.35 0 15 L 0 37 C 0 38.65 1.35 40 3 40 L 16 40 L 16 12 L 3 12 z M 18 12 L 18 40 L 32 40 L 32 12 L 18 12 z M 34 12 L 34 40 L 39.050781 40 L 44 28.789062 L 44 28 L 38 28 L 38 26 L 45 26 C 45.55 26 46 26.45 46 27 L 46 29 C 46 29.14 45.969922 29.280391 45.919922 29.400391 L 41.240234 40 L 47 40 C 48.65 40 50 38.65 50 37 L 50 15 C 50 13.35 48.65 12 47 12 L 46 12 L 46 19 C 46 20.65 44.65 22 43 22 L 41 22 C 39.35 22 38 20.65 38 19 L 38 12 L 34 12 z M 40 12 L 40 19 C 40 19.55 40.45 20 41 20 L 43 20 C 43.55 20 44 19.55 44 19 L 44 12 L 40 12 z M 7 17 L 9 17 C 10.65 17 12 18.35 12 20 L 12 32 C 12 33.65 10.65 35 9 35 L 7 35 C 5.35 35 4 33.65 4 32 L 4 20 C 4 18.35 5.35 17 7 17 z M 24 17 L 26 17 C 27.65 17 29 18.35 29 20 L 29 32 C 29 33.65 27.65 35 26 35 L 24 35 C 22.35 35 21 33.65 21 32 L 21 20 C 21 18.35 22.35 17 24 17 z M 7 19 C 6.45 19 6 19.45 6 20 L 6 32 C 6 32.55 6.45 33 7 33 L 9 33 C 9.55 33 10 32.55 10 32 L 10 20 C 10 19.45 9.55 19 9 19 L 7 19 z M 24 19 C 23.8625 19 23.730859 19.027344 23.611328 19.078125 C 23.491797 19.128906 23.383594 19.202344 23.292969 19.292969 C 23.202344 19.383594 23.128906 19.491797 23.078125 19.611328 C 23.027344 19.730859 23 19.8625 23 20 L 23 32 C 23 32.1375 23.027344 32.269141 23.078125 32.388672 C 23.179688 32.627734 23.372266 32.820312 23.611328 32.921875 C 23.730859 32.972656 23.8625 33 24 33 L 26 33 C 26.55 33 27 32.55 27 32 L 27 20 C 27 19.45 26.55 19 26 19 L 24 19 z"></path></svg>