<svg xmlns="http://www.w3.org/2000/svg" viewBox="0 0 50 50"><path d="M 23 0 L 23 4.0957031 C 13.018702 5.0446992 5.046896 13.018494 4.0976562 23 L 0 23 L 0 27 L 4.0976562 27 C 5.046896 36.981506 13.018702 44.955301 23 45.904297 L 23 50 L 27 50 L 27 45.902344 C 36.981223 44.953131 44.953131 36.981223 45.902344 27 L 50 27 L 50 23 L 45.902344 23 C 44.953131 13.018777 36.981223 5.046869 27 4.0976562 L 27 0 L 23 0 z M 27 8.1269531 C 34.805997 9.0369175 40.963083 15.194003 41.873047 23 L 39 23 L 39 27 L 41.873047 27 C 40.963083 34.805997 34.805997 40.963083 27 41.873047 L 27 39 L 23 39 L 23 41.871094 C 15.196372 40.959902 9.0368425 34.805354 8.1269531 27 L 11 27 L 11 23 L 8.1269531 23 C 9.0368425 15.194646 15.196372 9.0400983 23 8.1289062 L 23 11 L 27 11 L 27 8.1269531 z M 25 18 A 7 7 0 0 0 18 25 A 7 7 0 0 0 25 32 A 7 7 0 0 0 32 25 A 7 7 0 0 0 25 18 z"></path></svg>