<svg xmlns="http://www.w3.org/2000/svg" viewBox="0 0 50 50">    <path d="M 20.601562 2.0703125 C 14.786562 2.0703125 10.054688 6.0550781 10.054688 10.955078 C 10.055687 13.623078 11.489922 16.155938 13.919922 17.835938 C 13.813922 18.312938 13.543375 19.108109 12.859375 20.037109 L 11.775391 21.509766 L 13.603516 21.517578 L 13.630859 21.517578 C 15.932859 21.517578 17.568109 20.293906 18.287109 19.628906 C 19.040109 19.770906 19.817563 19.841797 20.601562 19.841797 C 26.416563 19.841797 31.146484 15.855078 31.146484 10.955078 C 31.146484 6.0550781 26.416563 2.0703125 20.601562 2.0703125 z M 31.074219 4.9746094 C 32.382219 6.6926094 33.150391 8.7460781 33.150391 10.955078 C 33.148391 14.720078 30.934125 18.042047 27.578125 19.998047 C 28.570125 20.308047 29.637859 20.486328 30.755859 20.486328 C 31.414859 20.486328 32.066172 20.429453 32.701172 20.314453 C 33.358172 20.908453 34.773188 21.926781 36.742188 21.925781 L 36.767578 21.925781 L 38.595703 21.917969 L 37.511719 20.445312 C 36.975719 19.716313 36.744531 19.087453 36.644531 18.689453 C 38.722531 17.222453 39.945312 15.031609 39.945312 12.724609 C 39.945312 8.5356094 35.992219 5.1186094 31.074219 4.9746094 z M 25.533203 24 C 20.349203 24 19.001953 26.973 19.001953 29.75 C 19.001953 30.426 19.228672 31.387187 19.388672 31.992188 C 19.177672 32.324187 19.001953 32.808 19.001953 33.5 C 19.001953 34.828 19.572391 35.538938 20.275391 35.835938 C 20.513391 36.718938 20.993953 37.633312 21.501953 38.195312 L 21.501953 39.78125 C 21.165953 40.35925 20.174047 40.781656 19.123047 41.222656 C 17.057047 42.097656 14.227953 43.2965 14.001953 46.9375 C 13.985953 47.2145 14.083484 47.4845 14.271484 47.6875 C 14.461484 47.8875 14.723953 48 15.001953 48 L 35.001953 48 C 35.278953 48 35.540516 47.886594 35.728516 47.683594 C 35.919516 47.484594 36.017047 47.2145 35.998047 46.9375 C 35.774047 43.2765 32.564797 42.085844 30.216797 41.214844 C 29.056797 40.784844 27.857953 40.339438 27.501953 39.773438 L 27.501953 38.191406 C 28.009953 37.632406 28.485516 36.719891 28.728516 35.837891 C 29.431516 35.540891 30.001953 34.829953 30.001953 33.501953 C 30.001953 32.810953 29.824281 32.324187 29.613281 31.992188 C 29.773281 31.387187 30.001953 30.427953 30.001953 29.751953 C 30.001953 27.618953 29.313797 25.33225 26.716797 25.03125 L 26.392578 24.488281 C 26.212578 24.187281 25.884203 24 25.533203 24 z M 16.375 24.332031 C 11.718 24.332031 10.507812 27.003047 10.507812 29.498047 C 10.507812 30.105047 10.710516 30.969672 10.853516 31.513672 C 10.663516 31.811672 10.507812 32.248141 10.507812 32.869141 C 10.507812 34.062141 11.018391 34.70175 11.650391 34.96875 C 11.864391 35.76175 12.297906 36.581891 12.753906 37.087891 L 12.753906 38.513672 C 12.451906 39.032672 11.559234 39.411594 10.615234 39.808594 C 8.7582344 40.594594 6.218625 41.672359 6.015625 44.943359 C 6.000625 45.191359 6.0878594 45.432234 6.2558594 45.615234 C 6.4278594 45.794234 6.6631094 45.896484 6.9121094 45.896484 L 12.113281 45.896484 C 12.824281 41.720484 16.37475 40.214859 18.34375 39.380859 C 18.67575 39.241859 19.150141 39.042188 19.494141 38.867188 C 19.146141 38.358187 18.842422 37.770156 18.607422 37.160156 C 17.576422 36.362156 17.001953 35.078 17.001953 33.5 C 17.001953 32.882 17.095297 32.310062 17.279297 31.789062 C 17.092297 30.970063 17.001953 30.298 17.001953 29.75 C 17.001953 28.051 17.401672 26.598922 18.138672 25.419922 C 17.922672 25.349922 17.6935 25.288766 17.4375 25.259766 L 17.146484 24.771484 C 16.985484 24.501484 16.691 24.332031 16.375 24.332031 z M 34.625 24.332031 C 32.909 24.332031 31.663484 24.696297 30.771484 25.279297 C 31.561484 26.414297 32.001953 27.924047 32.001953 29.748047 C 32.001953 30.296047 31.910609 30.968109 31.724609 31.787109 C 31.909609 32.308109 32.001953 32.880047 32.001953 33.498047 C 32.001953 35.077047 31.427531 36.364109 30.394531 37.162109 C 30.168531 37.748109 29.878781 38.310734 29.550781 38.802734 C 29.965781 38.988734 30.523156 39.195844 30.910156 39.339844 C 33.283156 40.219844 37.149719 41.655484 37.886719 45.896484 L 43.132812 45.896484 C 43.381813 45.896484 43.616156 45.793328 43.785156 45.611328 C 43.957156 45.432328 44.045344 45.190406 44.027344 44.941406 C 43.827344 41.652406 40.941031 40.583781 38.832031 39.800781 C 37.790031 39.414781 36.713531 39.014859 36.394531 38.505859 L 36.394531 37.083984 C 36.850531 36.581984 37.278094 35.76175 37.496094 34.96875 C 38.128094 34.70175 38.640625 34.062141 38.640625 32.869141 C 38.640625 32.248141 38.481969 31.812672 38.292969 31.513672 C 38.436969 30.969672 38.640625 30.106047 38.640625 29.498047 C 38.640625 27.582047 38.0215 25.530766 35.6875 25.259766 L 35.396484 24.771484 C 35.235484 24.501484 34.941 24.332031 34.625 24.332031 z"></path></svg>