<svg xmlns="http://www.w3.org/2000/svg" viewBox="0 0 24 24">    <path d="M 12 3 C 9.794 3 8 4.794 8 7 C 8 9.206 9.794 11 12 11 C 14.206 11 16 9.206 16 7 C 16 4.794 14.206 3 12 3 z M 12 14 C 8.859 14 3 15.545 3 18.5 L 3 21 L 13.171875 21 L 18.597656 15.572266 C 16.616656 14.535266 13.844 14 12 14 z M 22.207031 15 C 22.079156 15 21.951016 15.048984 21.853516 15.146484 L 20.853516 16.146484 L 22.853516 18.146484 L 23.853516 17.146484 C 24.048516 16.951484 24.048516 16.634453 23.853516 16.439453 L 22.560547 15.146484 C 22.462547 15.048984 22.334906 15 22.207031 15 z M 20.146484 16.853516 L 15 22 L 15 24 L 17 24 L 22.146484 18.853516 L 20.146484 16.853516 z"></path></svg>