<svg xmlns="http://www.w3.org/2000/svg" viewBox="0 0 24 24">    <path d="M 8 2 C 6.9 2 6 2.9 6 4 L 6 8 C 6 9.1 6.9 10 8 10 L 10 10 L 11.539062 12.308594 C 11.758062 12.637594 12.241937 12.637594 12.460938 12.308594 L 14 10 L 16 10 C 17.1 10 18 9.1 18 8 L 18 4 C 18 2.9 17.1 2 16 2 L 8 2 z M 7 13 A 2 2 0 0 0 5 15 A 2 2 0 0 0 7 17 A 2 2 0 0 0 9 15 A 2 2 0 0 0 7 13 z M 17 13 A 2 2 0 0 0 15 15 A 2 2 0 0 0 17 17 A 2 2 0 0 0 19 15 A 2 2 0 0 0 17 13 z M 7 18 C 4.815 18 3 18.908797 3 20.216797 L 3 21 C 3 21.552 3.448 22 4 22 L 10 22 C 10.552 22 11 21.552 11 21 L 11 20.216797 C 11 18.908797 9.185 18 7 18 z M 17 18 C 14.815 18 13 18.908797 13 20.216797 L 13 21 C 13 21.552 13.448 22 14 22 L 20 22 C 20.552 22 21 21.552 21 21 L 21 20.216797 C 21 18.908797 19.185 18 17 18 z"></path></svg>