<svg xmlns="http://www.w3.org/2000/svg" id="Layer_1" x="0" y="0" version="1.1" viewBox="0 0 128 128" xml:space="preserve">
<path fill="#6bd197" d="M108,1H86c-1.66,0-3,1.34-3,3s1.34,3,3,3h14.76L65.41,42.34c-0.75,0.75-2.07,0.76-2.83,0L49.66,29.41 c-1.51-1.51-3.52-2.34-5.66-2.34s-4.15,0.83-5.66,2.34L21.88,45.88c-1.17,1.17-1.17,3.07,0,4.24C22.46,50.71,23.23,51,24,51 s1.54-0.29,2.12-0.88l16.47-16.46c0.75-0.75,2.07-0.76,2.83,0l12.93,12.93c1.51,1.51,3.52,2.34,5.66,2.34s4.15-0.83,5.66-2.34 L105,11.24V26c0,1.66,1.34,3,3,3s3-1.34,3-3V4C111,2.34,109.66,1,108,1z">
</path>
<path fill="#FFF" d="M9,113v-8c0-6.08,4.92-11,11-11h0c6.08,0,11,4.92,11,11v8c0,6.08-4.92,11-11,11h0C13.92,124,9,119.08,9,113z">
</path>
<path fill="#FFF" d="M97,113V65c0-6.08,4.92-11,11-11h0c6.08,0,11,4.92,11,11v48c0,6.08-4.92,11-11,11h0 C101.92,124,97,119.08,97,113z">
</path>
<path fill="#FFF" d="M53,113V85c0-6.08,4.92-11,11-11h0c6.08,0,11,4.92,11,11v28c0,6.08-4.92,11-11,11h0 C57.92,124,53,119.08,53,113z">
</path>
<path fill="#6bd197" d="M20,127c-7.72,0-14-6.28-14-14v-8c0-7.72,6.28-14,14-14s14,6.28,14,14v8C34,120.72,27.72,127,20,127z M20,97 c-4.41,0-8,3.59-8,8v8c0,4.41,3.59,8,8,8s8-3.59,8-8v-8C28,100.59,24.41,97,20,97z">
</path>
<path fill="#6bd197" d="M108,127c-7.72,0-14-6.28-14-14V65c0-7.72,6.28-14,14-14s14,6.28,14,14v48C122,120.72,115.72,127,108,127z M108,57c-4.41,0-8,3.59-8,8v48c0,4.41,3.59,8,8,8s8-3.59,8-8V65C116,60.59,112.41,57,108,57z">
</path>
<path fill="#6bd197" d="M64,127c-7.72,0-14-6.28-14-14V85c0-7.72,6.28-14,14-14s14,6.28,14,14v28C78,120.72,71.72,127,64,127z M64,77c-4.41,0-8,3.59-8,8v28c0,4.41,3.59,8,8,8s8-3.59,8-8V85C72,80.59,68.41,77,64,77z">
</path>
</svg>