<svg xmlns="http://www.w3.org/2000/svg" viewBox="0 0 24 24"><path d="M 12 0.9921875 L 2.9921875 6.2480469 C 2.3788628 6.6056531 2 7.2646798 2 7.9746094 L 2 18 C 2 19.093063 2.9069372 20 4 20 L 20 20 C 21.093063 20 22 19.093063 22 18 L 22 7.9746094 C 22 7.2646798 21.621137 6.6056531 21.007812 6.2480469 L 12 0.9921875 z M 12 3.3085938 L 19.892578 7.9121094 L 12 12.822266 L 4.1074219 7.9121094 L 12 3.3085938 z M 11 5 L 11 7 L 9 7 L 9 9 L 11 9 L 11 11 L 13 11 L 13 9 L 15 9 L 15 7 L 13 7 L 13 5 L 11 5 z M 4 10.201172 L 12 15.177734 L 20 10.201172 L 20 18 L 4 18 L 4 10.201172 z"></path></svg>