<svg xmlns="http://www.w3.org/2000/svg" viewBox="0 0 24 24">    <path d="M 5 3 C 3.895 3 3 3.895 3 5 L 3 6 L 3 7 L 3 19 C 3 20.105 3.895 21 5 21 L 14.171875 21 C 14.723875 21 15.171875 20.552 15.171875 20 C 15.171875 19.448 14.724875 19 14.171875 19 L 5 19 L 5 7 L 19 7 L 18.998047 14.171875 C 18.998047 14.723875 19.446047 15.171875 19.998047 15.171875 C 20.550047 15.171875 20.998047 14.723875 20.998047 14.171875 L 20.998047 7 L 21 7 L 21 5 C 21 3.895 20.105 3 19 3 L 5 3 z M 7.5 10 C 7.224 10 7 10.224 7 10.5 L 7 11.5 C 7 11.776 7.224 12 7.5 12 L 8.5 12 C 8.776 12 9 11.776 9 11.5 L 9 10.5 C 9 10.224 8.776 10 8.5 10 L 7.5 10 z M 12 10 C 11.448 10 11 10.448 11 11 C 11 11.552 11.448 12 12 12 L 16 12 C 16.552 12 17 11.552 17 11 C 17 10.448 16.552 10 16 10 L 12 10 z M 7.5 14 C 7.224 14 7 14.224 7 14.5 L 7 15.5 C 7 15.776 7.224 16 7.5 16 L 8.5 16 C 8.776 16 9 15.776 9 15.5 L 9 14.5 C 9 14.224 8.776 14 8.5 14 L 7.5 14 z M 12 14 C 11.448 14 11 14.448 11 15 C 11 15.552 11.448 16 12 16 L 13 16 L 13 14 L 12 14 z M 15 15 L 15 17 L 20.146484 22.146484 L 22.146484 20.146484 L 17 15 L 15 15 z M 22.853516 20.853516 L 20.853516 22.853516 L 21.853516 23.853516 C 22.048516 24.048516 22.365547 24.048516 22.560547 23.853516 L 23.853516 22.560547 C 24.048516 22.364547 24.048516 22.048516 23.853516 21.853516 L 22.853516 20.853516 z"></path></svg>