<svg xmlns="http://www.w3.org/2000/svg" id="Layer_1" x="0" y="0" version="1.1" viewBox="0 0 128 128" xml:space="preserve"><path fill="#b8e4ff" d="M111,4H17L4,30l37,45h46l37-45L111,4z M64,61L38,30h51.7L64,61z"></path><path fill="#b8e4ff" d="M111,4H17L4,30l37,45h46l37-45L111,4z M64,61L38,30h51.7L64,61z"></path><path fill="#3c9fdd" d="M37,4H17l21,26h20L37,4z"></path><path fill="#444b54" d="M126.7,28.7l-13-26c-0.5-1-1.5-1.7-2.7-1.7H17c-1.1,0-2.2,0.6-2.7,1.7l-13,26c-0.5,1.1-0.4,2.4,0.4,3.3 l29.5,35.2c0.6,0.7,1.4,1.1,2.3,1.1c0.7,0,1.4-0.2,1.9-0.7c1.3-1.1,1.4-3,0.4-4.2L8,30.1c-0.3-0.3-0.3-0.7-0.1-1.1l9.1-18.1 c0.3-0.6,1.2-0.7,1.7-0.2l35.3,43.2l0.5,0.6c0.6,0.7,1.4,1.1,2.3,1.1c0.7,0,1.4-0.2,1.9-0.7c1.3-1.1,1.4-3,0.4-4.2L45.9,34.6 C45.3,34,45.8,33,46.6,33l25.2,0c1.6,0,3.1-1.2,3.2-2.8c0.1-1.7-1.3-3.2-3-3.2H40.1c-0.3,0-0.6-0.1-0.8-0.4l-14.7-18 C24.1,8,24.6,7,25.4,7h77.1c0.8,0,1.3,1,0.8,1.6L69.4,50.1L69,50.6c-1.1,1.3-1,3.3,0.3,4.4c0.6,0.5,1.2,0.7,1.9,0.7 c0.9,0,1.7-0.4,2.3-1.1l35.9-43.9c0.5-0.6,1.3-0.5,1.7,0.2l9.1,18.1c0.2,0.4,0.1,0.8-0.1,1.1l-27.6,33c-1.1,1.3-0.9,3.2,0.4,4.2 c1.3,1.1,3.2,0.9,4.2-0.4l29.3-35C127.1,31,127.2,29.7,126.7,28.7z"></path><g><path fill="#fff" d="M64 64A30 30 0 1 0 64 124A30 30 0 1 0 64 64Z"></path><path fill="#444b54" d="M64,127c-18.2,0-33-14.8-33-33s14.8-33,33-33s33,14.8,33,33S82.2,127,64,127z M64,67c-14.9,0-27,12.1-27,27 s12.1,27,27,27s27-12.1,27-27S78.9,67,64,67z"></path></g></svg>