<svg xmlns="http://www.w3.org/2000/svg" viewBox="0 0 24 24">    <path d="M 12 1 C 10.35499 1 9 2.3549904 9 4 C 9 4.351851 9.0739423 4.6851061 9.1875 5 L 3 5 C 1.897 5 1 5.897 1 7 L 1 19 C 1 20.103 1.897 21 3 21 L 21 21 C 22.103 21 23 20.103 23 19 L 23 7 C 23 5.897 22.103 5 21 5 L 14.8125 5 C 14.926058 4.6851061 15 4.351851 15 4 C 15 2.3549904 13.64501 1 12 1 z M 12 3 C 12.564129 3 13 3.4358706 13 4 C 13 4.5641294 12.564129 5 12 5 C 11.435871 5 11 4.5641294 11 4 C 11 3.4358706 11.435871 3 12 3 z M 8 9 C 9.133 9 10 9.867 10 11 C 10 12.133 9.133 13 8 13 C 6.867 13 6 12.133 6 11 C 6 9.867 6.867 9 8 9 z M 14 10 L 20 10 L 20 12 L 14 12 L 14 10 z M 8 14 C 10.185 14 12 14.908797 12 16.216797 L 12 17 L 4 17 L 4 16.216797 C 4 14.908797 5.815 14 8 14 z M 14 14 L 20 14 L 20 16 L 14 16 L 14 14 z"></path></svg>