<svg xmlns="http://www.w3.org/2000/svg" viewBox="0 0 24 24">    <path d="M12,2C6.486,2,2,6.038,2,11c0,5.259,5.04,9.508,11,8.953V22c0.02-0.007,0,1,1,0.451l0.54-0.346 c1.132-0.726,6.807-4.628,7.403-10.15C21.98,11.641,22,11.322,22,11C22,6.038,17.514,2,12,2z M8.5,12h-1C7.224,12,7,11.776,7,11.5 v-1C7,10.224,7.224,10,7.5,10h1C8.776,10,9,10.224,9,10.5v1C9,11.776,8.776,12,8.5,12z M12.5,12h-1c-0.276,0-0.5-0.224-0.5-0.5v-1 c0-0.276,0.224-0.5,0.5-0.5h1c0.276,0,0.5,0.224,0.5,0.5v1C13,11.776,12.776,12,12.5,12z M16.5,12h-1c-0.276,0-0.5-0.224-0.5-0.5 v-1c0-0.276,0.224-0.5,0.5-0.5h1c0.276,0,0.5,0.224,0.5,0.5v1C17,11.776,16.776,12,16.5,12z"></path></svg>