<svg xmlns="http://www.w3.org/2000/svg" viewBox="0 0 24 24"><path d="M 12 2 C 10.398438 2 9.101563 3.3125 9 4.8125 L 15 10.8125 L 15 5 C 15 3.300781 13.699219 2 12 2 Z M 3.4375 2.03125 L 2.03125 3.4375 L 9 10.40625 L 9 12 C 9 13.699219 10.300781 15 12 15 C 12.464844 15 12.894531 14.875 13.28125 14.6875 L 14.71875 16.125 C 13.933594 16.65625 13.011719 17 12 17 C 9.199219 17 7 14.800781 7 12 L 5 12 C 5 15.5 7.601563 18.40625 11 18.90625 L 11 22 L 13 22 L 13 18.90625 C 14.1875 18.71875 15.25 18.253906 16.15625 17.59375 L 20.5625 21.96875 L 21.96875 20.5625 L 14.6875 13.3125 L 9 7.59375 Z M 17 12 C 17 12.300781 17.007813 12.488281 16.90625 12.6875 L 18.59375 14.40625 C 18.894531 13.707031 19 12.898438 19 12 Z"></path></svg>