<svg xmlns="http://www.w3.org/2000/svg" viewBox="0 0 24 24"><path d="M 4 3 C 3.476563 3 2.941406 3.183594 2.5625 3.5625 C 2.183594 3.941406 2 4.476563 2 5 L 2 19 C 2 19.523438 2.183594 20.058594 2.5625 20.4375 C 2.941406 20.816406 3.476563 21 4 21 L 20 21 C 20.523438 21 21.058594 20.816406 21.4375 20.4375 C 21.816406 20.058594 22 19.523438 22 19 L 22 5 C 22 4.476563 21.816406 3.941406 21.4375 3.5625 C 21.058594 3.183594 20.523438 3 20 3 Z M 4 7 L 20 7 L 20 19 L 4 19 Z M 12 8 C 9.25 8 7 10.25 7 13 C 7 15.75 9.25 18 12 18 C 14.75 18 17 15.75 17 13 C 17 10.25 14.75 8 12 8 Z M 12 10 C 12.46875 10 12.917969 10.09375 13.3125 10.28125 L 9.28125 14.3125 C 9.09375 13.917969 9 13.46875 9 13 C 9 11.332031 10.332031 10 12 10 Z M 14.71875 11.6875 C 14.90625 12.082031 15 12.53125 15 13 C 15 14.667969 13.667969 16 12 16 C 11.53125 16 11.082031 15.90625 10.6875 15.71875 Z"></path></svg>