<svg xmlns="http://www.w3.org/2000/svg" viewBox="0 0 24 24">    <path d="M18,2H6C4.895,2,4,2.895,4,4v1H3C2.448,5,2,5.448,2,6s0.448,1,1,1h1c0.552,0,1,0.448,1,1v0c0,0.552-0.448,1-1,1H3 c-0.552,0-1,0.448-1,1s0.448,1,1,1h1c0.552,0,1,0.448,1,1v0c0,0.552-0.448,1-1,1H3c-0.552,0-1,0.448-1,1s0.448,1,1,1h1 c0.552,0,1,0.448,1,1v0c0,0.552-0.448,1-1,1H3c-0.552,0-1,0.448-1,1s0.448,1,1,1h1v1c0,1.105,0.895,2,2,2h12c1.105,0,2-0.895,2-2V4 C20,2.895,19.105,2,18,2z M15,9H9C8.448,9,8,8.552,8,8v0c0-0.552,0.448-1,1-1h6c0.552,0,1,0.448,1,1v0C16,8.552,15.552,9,15,9z"></path></svg>