<svg xmlns="http://www.w3.org/2000/svg" viewBox="0 0 24 24">    <path d="M 12 1 C 8.6761905 1 6 3.6761905 6 7 L 6 8 C 4.9 8 4 8.9 4 10 L 4 20 C 4 21.1 4.9 22 6 22 L 18 22 C 19.1 22 20 21.1 20 20 L 20 10 C 20 8.9 19.1 8 18 8 L 18 7 C 18 3.6761905 15.32381 1 12 1 z M 12 3 C 14.27619 3 16 4.7238095 16 7 L 16 8 L 8 8 L 8 7 C 8 4.7238095 9.7238095 3 12 3 z M 8 14 C 8.55 14 9 14.45 9 15 C 9 15.55 8.55 16 8 16 C 7.45 16 7 15.55 7 15 C 7 14.45 7.45 14 8 14 z M 12 14 C 12.55 14 13 14.45 13 15 C 13 15.55 12.55 16 12 16 C 11.45 16 11 15.55 11 15 C 11 14.45 11.45 14 12 14 z M 16 14 C 16.55 14 17 14.45 17 15 C 17 15.55 16.55 16 16 16 C 15.45 16 15 15.55 15 15 C 15 14.45 15.45 14 16 14 z"></path></svg>