<svg xmlns="http://www.w3.org/2000/svg" viewBox="0 0 24 24"><path d="M12,1C7.589,1,4,4.589,4,9c0,0.354,0.028,0.716,0.098,1.19l0.142,0.724c0.078,0.316,0.174,0.625,0.268,0.867l2.214,7.111	C7.114,20.153,8.266,21,9.585,21H11v1.489c0,0.552,0.447,1,1,1s1-0.448,1-1V21h1.415c1.319,0,2.471-0.847,2.864-2.108l2.193-7.053	c0.114-0.3,0.21-0.608,0.299-0.974l0.14-0.724C19.972,9.716,20,9.354,20,9C20,4.589,16.411,1,12,1z M13,16c0,0.552-0.447,1-1,1	s-1-0.448-1-1v-3c0-0.552,0.447-1,1-1s1,0.448,1,1V16z M13.914,9l1.56-1.561c0.391-0.391,0.391-1.024,0-1.414	c-0.391-0.391-1.023-0.391-1.414,0l-1.982,1.982C12.052,8.007,12.027,8,12,8c-0.738,0-1.376,0.405-1.723,1H6c0-3.309,2.691-6,6-6	s6,2.691,6,6H13.914z"></path></svg>