<svg xmlns="http://www.w3.org/2000/svg" viewBox="0 0 30 30"><path d="M 10 4 C 9.448 4 9 4.448 9 5 L 9 9 L 2 9 C 1.448 9 1 9.448 1 10 L 1 23 A 1.0001 1.0001 0 1 0 1 25 L 29 25 A 1.0001 1.0001 0 1 0 29 23 L 29 13 C 29 12.448 28.552 12 28 12 L 21 12 L 21 5 C 21 4.448 20.552 4 20 4 L 10 4 z M 14.378906 7 L 15.904297 7 L 15.904297 13 L 14.378906 13 L 14.378906 8.3769531 L 14.300781 8.3769531 L 12.853516 9.3535156 L 12.853516 8.0390625 L 14.378906 7 z M 6 12 C 7.308 12 8.1816406 12.699422 8.1816406 13.732422 C 8.1816406 14.380422 7.801625 14.955906 6.765625 15.878906 L 5.8007812 16.765625 L 5.8007812 16.84375 L 8.2636719 16.84375 L 8.2636719 18 L 3.8222656 18 L 3.8222656 17.007812 L 5.6679688 15.271484 C 6.5259687 14.477484 6.7441406 14.181891 6.7441406 13.837891 C 6.7441406 13.408891 6.4292656 13.121094 5.9472656 13.121094 C 5.4452656 13.121094 5.0976563 13.461359 5.0976562 13.943359 L 5.0976562 13.970703 L 3.7363281 13.970703 L 3.7363281 13.947266 C 3.7363281 12.785266 4.644 12 6 12 z M 23.974609 15 C 25.236609 15 26.105469 15.635688 26.105469 16.554688 C 26.105469 17.209688 25.666344 17.72575 25.027344 17.84375 L 25.027344 17.919922 C 25.812344 18.002922 26.314453 18.518953 26.314453 19.251953 C 26.315453 20.281953 25.343172 21 23.951172 21 C 22.622172 21 21.726781 20.274203 21.675781 19.158203 L 23.056641 19.158203 C 23.076641 19.592203 23.428562 19.859375 23.976562 19.859375 C 24.489563 19.859375 24.84375 19.568578 24.84375 19.142578 C 24.84375 18.704578 24.508078 18.435547 23.955078 18.435547 L 23.257812 18.435547 L 23.257812 17.4375 L 23.955078 17.4375 C 24.440078 17.4375 24.761719 17.165953 24.761719 16.751953 C 24.761719 16.337953 24.448359 16.080078 23.943359 16.080078 C 23.446359 16.080078 23.111703 16.376266 23.095703 16.822266 L 21.78125 16.822266 C 21.80125 15.709266 22.653609 15 23.974609 15 z"></path></svg>