<?xml version="1.0" encoding="iso-8859-1"?>
<!-- Generator: Adobe Illustrator 18.1.1, SVG Export Plug-In . SVG Version: 6.00 Build 0)  -->
<svg version="1.1" id="Capa_1" xmlns="http://www.w3.org/2000/svg" xmlns:xlink="http://www.w3.org/1999/xlink" x="0px" y="0px"
	 viewBox="0 0 51.167 51.167" style="enable-background:new 0 0 51.167 51.167;" xml:space="preserve">
<g>
	<path style="fill:#030104;" d="M34.53,18.54H6.136C2.753,18.54,0,21.427,0,24.976v12.632c0,3.548,2.753,6.435,6.136,6.435H34.53
		c3.383,0,6.136-2.887,6.136-6.435V24.976C40.666,21.427,37.913,18.54,34.53,18.54z M38.554,37.607c0,2.384-1.805,4.323-4.024,4.323
		H6.136c-2.014,0-3.671-1.602-3.963-3.68c1.393-1.184,5.668-4.402,9.591-3.016c3.567,1.263,6.374-0.687,8.849-2.408
		c1.784-1.241,3.469-2.413,5.372-2.538c4.971-0.327,12.45-0.002,12.525,0.001l0.044-0.999C38.554,29.29,38.554,37.607,38.554,37.607
		z M38.554,28.288c-0.574-0.024-7.721-0.322-12.7,0.003c-2.458,0.162-4.453,1.55-6.383,2.893c-2.383,1.656-4.441,3.085-7.039,2.165
		c-4.027-1.428-8.064,0.77-10.319,2.401V24.976c-0.001-2.384,1.804-4.323,4.023-4.323H34.53c2.219,0,4.024,1.938,4.024,4.322
		C38.554,24.975,38.554,28.288,38.554,28.288z M46.001,18.957v19.667c0,0.553-0.447,1-1,1s-1-0.447-1-1V18.957c0-2.206-1.794-4-4-4
		H8.668c-0.553,0-1-0.447-1-1s0.447-1,1-1h31.333C43.31,12.957,46.001,15.648,46.001,18.957z M51.167,13.124v19.667
		c0,0.553-0.447,1-1,1s-1-0.447-1-1V13.124c0-2.206-1.794-4-4-4H13.834c-0.553,0-1-0.447-1-1s0.447-1,1-1h31.333
		C48.476,7.124,51.167,9.815,51.167,13.124z M8.668,22.374c-2.159,0-3.916,1.757-3.916,3.916s1.757,3.916,3.916,3.916
		s3.916-1.757,3.916-3.916S10.827,22.374,8.668,22.374z M8.668,28.206c-1.057,0-1.916-0.859-1.916-1.916s0.859-1.916,1.916-1.916
		c1.057,0,1.916,0.859,1.916,1.916S9.725,28.206,8.668,28.206z"/>
</g>
</svg>
