<svg xmlns="http://www.w3.org/2000/svg" viewBox="0 0 16 16"><path fill="#ffeea3" d="M11,14.5c-1.418,0-3.875-0.198-4.625-1.502L2.135,2.734l0.612-0.918l11.847,10.088 C15.035,12.237,15.5,12.756,15.5,13C15.5,13.927,13.164,14.5,11,14.5z"></path><path fill="#f5c276" d="M2.851,2.562l11.419,9.723l0.024,0.02l0.025,0.018c0.281,0.211,0.597,0.547,0.677,0.712 C14.89,13.394,13.273,14,11,14c-2.191,0-3.701-0.446-4.177-1.227l-0.017-0.041L2.699,2.79L2.851,2.562 M2.643,1.071L1.571,2.679 l4.311,10.436c0,0.006-0.005,0.012-0.002,0.017C6.675,14.732,9.271,15,11,15s5-0.418,5-2c0-0.673-1.081-1.476-1.082-1.477 L2.643,1.071L2.643,1.071z"></path><path fill="#fff9de" d="M11,12c-2.625,0-4,0.743-4,1s1.375,1,4,1s4-0.743,4-1S13.625,12,11,12z"></path><path fill="#66798f" d="M5 1L2.816 1 1 2.812 1 5 2 5 2 3 3 2 5 2 5 1z"></path><path fill="#b0c1d4" d="M0.654,1.758c-0.207-0.207-0.207-0.545,0-0.752l0.351-0.352C1.105,0.555,1.239,0.5,1.382,0.5 s0.276,0.055,0.376,0.155l1.32,1.32L1.975,3.078L0.654,1.758z"></path><path fill="#66798f" d="M1.382,1l0.022,0.008l0.966,0.966L1.984,2.361L1.008,1.36L1.36,1.008C1.362,1.006,1.368,1,1.382,1 M1.382,0C1.117,0,0.853,0.1,0.652,0.301L0.301,0.652C-0.1,1.054-0.1,1.71,0.301,2.111l1.674,1.674l1.81-1.81L2.111,0.301 C1.911,0.1,1.646,0,1.382,0L1.382,0z"></path><g><path fill="#66798f" d="M2.816 1.008L1 2.812 2 4 4 2 2.816 1.008z"></path></g></svg>