<?xml version="1.0" encoding="UTF-8"?>
<svg xmlns="http://www.w3.org/2000/svg" xmlns:xlink="http://www.w3.org/1999/xlink" viewBox="0 0 64 64" width="64px" height="64px">
<g id="surface39905831">
<path style=" stroke:none;fill-rule:nonzero;fill:rgb(100%,100%,100%);fill-opacity:1;" d="M 25.773438 6 C 21.898438 6 18.578125 8.773438 17.890625 12.585938 L 17.640625 14 L 12 14 C 7.578125 14 4 17.578125 4 22 L 4 48 C 4 52.421875 7.578125 56 12 56 L 52 56 C 56.421875 56 60 52.421875 60 48 L 60 22 C 60 17.578125 56.421875 14 52 14 L 46.359375 14 L 46.101562 12.585938 C 45.421875 8.773438 42.101562 6 38.226562 6 Z M 25.773438 10 L 38.226562 10 C 40.171875 10 41.828125 11.382812 42.171875 13.296875 L 42.429688 14.703125 C 42.765625 16.609375 44.421875 18 46.359375 18 L 52 18 C 54.203125 18 56 19.796875 56 22 L 56 48 C 56 50.203125 54.203125 52 52 52 L 12 52 C 9.796875 52 8 50.203125 8 48 L 8 22 C 8 19.796875 9.796875 18 12 18 L 17.640625 18 C 19.578125 18 21.234375 16.609375 21.578125 14.703125 L 21.835938 13.296875 C 22.171875 11.390625 23.828125 10 25.773438 10 Z M 32 22 C 24.820312 22 19 27.820312 19 35 C 19 42.179688 24.820312 48 32 48 C 39.179688 48 45 42.179688 45 35 C 45 27.820312 39.179688 22 32 22 Z M 32 26 C 36.960938 26 41 30.039062 41 35 C 41 39.960938 36.960938 44 32 44 C 27.039062 44 23 39.960938 23 35 C 23 30.039062 27.039062 26 32 26 Z M 32 26 "/>
</g>
</svg>
