<svg xmlns="http://www.w3.org/2000/svg" viewBox="0 0 30 30">    <path d="M 15 3 C 10.398 3 5.6113281 4.0371094 5.6113281 4.0371094 L 5.6074219 4.0410156 A 2 2 0 0 0 4 6 L 4 12 C 4 22.398 14.021484 26.744141 14.021484 26.744141 A 2 2 0 0 0 15 27 A 2 2 0 0 0 15.974609 26.744141 L 15.978516 26.744141 C 15.979516 26.744141 26 22.398 26 12 L 26 6 A 2 2 0 0 0 24.388672 4.0371094 C 24.388672 4.0371094 19.602 3 15 3 z M 13.787109 7 L 16.212891 7 L 16.011719 16 L 13.988281 16 L 13.787109 7 z M 15.003906 18.810547 C 15.825906 18.810547 16.318359 19.252813 16.318359 20.007812 C 16.318359 20.748812 15.825906 21.189453 15.003906 21.189453 C 14.175906 21.189453 13.679688 20.748813 13.679688 20.007812 C 13.679688 19.252813 14.174906 18.810547 15.003906 18.810547 z"></path></svg>