<?xml version="1.0" standalone="no"?>
<!DOCTYPE svg PUBLIC "-//W3C//DTD SVG 20010904//EN"
 "http://www.w3.org/TR/2001/REC-SVG-20010904/DTD/svg10.dtd">
<svg version="1.0" xmlns="http://www.w3.org/2000/svg"
 width="512.000000pt" height="512.000000pt" viewBox="0 0 512.000000 512.000000"
 preserveAspectRatio="xMidYMid meet">

<g transform="translate(0.000000,512.000000) scale(0.100000,-0.100000)"
fill="#000000" stroke="none">
<path d="M1 5018 l0 -103 15 46 c18 61 82 125 143 143 l46 15 -102 0 -103 1 1
-102z"/>
<path d="M1701 5106 c117 -41 182 -164 149 -280 -16 -57 -72 -123 -124 -147
-38 -17 -75 -19 -483 -19 -244 0 -443 -3 -443 -8 0 -4 333 -340 741 -747 549
-548 746 -751 761 -783 37 -82 20 -192 -40 -256 -61 -65 -179 -87 -264 -48
-32 15 -235 212 -783 761 -407 408 -743 741 -747 741 -5 0 -8 -199 -8 -442 0
-501 1 -491 -79 -560 -125 -106 -311 -55 -367 101 -11 30 -13 -116 -13 -859 0
-743 2 -889 13 -859 41 117 164 182 280 149 57 -16 123 -72 147 -124 17 -38
19 -75 19 -483 0 -244 3 -443 8 -443 4 0 340 333 747 741 548 549 751 746 783
761 85 39 203 17 264 -48 60 -64 77 -174 40 -256 -15 -32 -212 -235 -761 -783
-408 -407 -741 -743 -741 -747 0 -5 199 -8 443 -8 408 0 445 -2 483 -19 52
-24 108 -90 124 -147 34 -120 -44 -256 -162 -284 -18 -4 374 -8 872 -8 498 0
890 4 872 8 -165 39 -227 263 -104 383 70 68 62 67 552 67 242 0 440 3 440 8
0 4 -333 340 -741 747 -549 548 -746 751 -761 783 -37 82 -20 192 40 256 61
65 179 87 264 48 32 -15 235 -212 783 -761 407 -408 743 -741 747 -741 5 0 8
198 8 440 0 490 -1 482 67 552 120 123 344 61 383 -104 4 -18 8 374 8 872 0
498 -4 890 -8 872 -28 -118 -164 -196 -284 -162 -57 16 -123 72 -147 124 -17
38 -19 75 -19 484 0 243 -3 442 -8 442 -4 0 -340 -333 -747 -741 -548 -549
-751 -746 -783 -761 -85 -39 -203 -17 -264 48 -60 64 -77 174 -40 256 15 32
212 235 761 783 408 407 741 743 741 747 0 5 -199 8 -442 8 -501 0 -491 -1
-560 79 -106 125 -55 311 101 367 30 11 -116 13 -859 13 -743 0 -889 -2 -859
-13z"/>
<path d="M4961 5104 c61 -18 125 -82 143 -143 l15 -46 0 103 1 102 -102 -1
-103 0 46 -15z"/>
<path d="M1 103 l-1 -103 103 1 102 0 -46 15 c-61 18 -125 82 -143 143 l-15
46 0 -102z"/>
<path d="M5103 157 c-16 -58 -81 -123 -142 -141 l-46 -15 103 0 102 -1 0 100
c0 55 -1 100 -3 100 -2 0 -8 -20 -14 -43z"/>
</g>
</svg>
