<?xml version="1.0" encoding="iso-8859-1"?>
<!-- Generator: Adobe Illustrator 19.0.0, SVG Export Plug-In . SVG Version: 6.00 Build 0)  -->
<svg version="1.1" id="Layer_1" xmlns="http://www.w3.org/2000/svg" xmlns:xlink="http://www.w3.org/1999/xlink" x="0px" y="0px"
	 viewBox="0 0 511.998 511.998" style="enable-background:new 0 0 511.998 511.998;" xml:space="preserve">
<g>
	<g>
		<path d="M508.221,486.741l-23.197-49.293c-0.974-2.07-3.055-3.391-5.343-3.391H32.295c-2.287,0-4.368,1.321-5.343,3.391
			L3.9,486.436c-5.865,12.462,3.242,25.562,15.886,25.562h472C505.645,511.999,513.609,498.188,508.221,486.741z"/>
	</g>
</g>
<g>
	<g>
		<path d="M129.639,262.823H36.346c-3.262,0-5.905,2.643-5.905,5.905v123.998c0,3.261,2.644,5.905,5.905,5.905h93.294
			c3.261,0,5.905-2.644,5.905-5.905V268.728C135.544,265.467,132.9,262.823,129.639,262.823z"/>
	</g>
</g>
<g>
	<g>
		<path d="M302.055,262.823h-93.294c-3.262,0-5.905,2.643-5.905,5.905v123.998c0,3.261,2.644,5.905,5.905,5.905h93.294
			c3.261,0,5.905-2.644,5.905-5.905V268.728C307.96,265.467,305.316,262.823,302.055,262.823z"/>
	</g>
</g>
<g>
	<g>
		<path d="M475.652,262.823h-93.294c-3.262,0-5.905,2.643-5.905,5.905v123.998c0,3.261,2.644,5.905,5.905,5.905h93.294
			c3.261,0,5.905-2.644,5.905-5.905V268.728C481.557,265.467,478.913,262.823,475.652,262.823z"/>
	</g>
</g>
<g>
	<g>
		<path d="M471.672,132.648L265.43,2.726c-5.77-3.635-13.113-3.635-18.883,0L40.306,132.648c-5.011,3.157-2.774,10.901,3.147,10.901
			h425.072C474.446,143.549,476.682,135.804,471.672,132.648z"/>
	</g>
</g>
<g>
	<g>
		<path d="M495.966,178.977H16.013c-4.328,0-7.186,4.503-5.343,8.419l17.227,36.609c0.973,2.069,3.055,3.391,5.343,3.391h445.498
			c2.288,0,4.368-1.321,5.343-3.391l17.227-36.609C503.152,183.48,500.294,178.977,495.966,178.977z"/>
	</g>
</g>
<g>
</g>
<g>
</g>
<g>
</g>
<g>
</g>
<g>
</g>
<g>
</g>
<g>
</g>
<g>
</g>
<g>
</g>
<g>
</g>
<g>
</g>
<g>
</g>
<g>
</g>
<g>
</g>
<g>
</g>
</svg>
