<?xml version="1.0" encoding="iso-8859-1"?>
<!-- Generator: Adobe Illustrator 16.0.0, SVG Export Plug-In . SVG Version: 6.00 Build 0)  -->
<!DOCTYPE svg PUBLIC "-//W3C//DTD SVG 1.1//EN" "http://www.w3.org/Graphics/SVG/1.1/DTD/svg11.dtd">
<svg version="1.1" id="Capa_1" xmlns="http://www.w3.org/2000/svg" xmlns:xlink="http://www.w3.org/1999/xlink" x="0px" y="0px"
	 width="506.812px" height="506.812px" viewBox="0 0 506.812 506.812" style="enable-background:new 0 0 506.812 506.812;"
	 xml:space="preserve">
<g>
	<g id="Layer_2_28_">
		<polygon points="96.428,396.844 0,396.844 0,444.656 73.928,444.656 		"/>
		<polygon points="442.447,444.656 506.812,444.656 506.812,396.844 419.946,396.844 		"/>
		<polygon points="127.927,329.906 38.25,329.906 38.25,377.719 105.427,377.719 		"/>
		<polygon points="410.948,377.719 468.562,377.719 468.562,329.906 388.448,329.906 		"/>
		<polygon points="159.426,262.969 86.062,262.969 86.062,310.781 136.925,310.781 		"/>
		<polygon points="379.449,310.781 420.75,310.781 420.75,262.969 356.949,262.969 		"/>
		<polygon points="190.925,196.031 133.875,196.031 133.875,243.844 168.424,243.844 		"/>
		<polygon points="347.951,243.844 372.938,243.844 372.938,196.031 325.45,196.031 		"/>
		<polygon points="217.929,138.656 221.754,130.509 226.928,119.531 229.5,119.531 229.5,81.281 286.875,81.281 286.875,119.531 
			289.447,119.531 294.621,130.509 298.445,138.656 316.452,176.906 353.812,176.906 344.25,138.656 325.125,138.656 
			325.125,81.281 344.25,81.281 344.25,43.031 172.125,43.031 172.125,81.281 191.25,81.281 191.25,138.656 172.125,138.656 
			162.562,176.906 199.923,176.906 		"/>
		<polygon points="421.314,444.656 398.813,396.844 389.815,377.719 367.314,329.906 358.316,310.781 335.815,262.969 
			326.808,243.844 304.317,196.031 295.31,176.906 277.312,138.656 239.062,138.656 221.066,176.906 212.058,196.031 
			189.567,243.844 180.559,262.969 158.059,310.781 149.06,329.906 126.56,377.719 117.562,396.844 95.061,444.656 86.062,463.781 
			430.312,463.781 		"/>
	</g>
</g>
<g>
</g>
<g>
</g>
<g>
</g>
<g>
</g>
<g>
</g>
<g>
</g>
<g>
</g>
<g>
</g>
<g>
</g>
<g>
</g>
<g>
</g>
<g>
</g>
<g>
</g>
<g>
</g>
<g>
</g>
</svg>
