<?xml version="1.0" encoding="iso-8859-1"?>
<!-- Generator: Adobe Illustrator 16.0.0, SVG Export Plug-In . SVG Version: 6.00 Build 0)  -->
<!DOCTYPE svg PUBLIC "-//W3C//DTD SVG 1.1//EN" "http://www.w3.org/Graphics/SVG/1.1/DTD/svg11.dtd">
<svg version="1.1" id="Capa_1" xmlns="http://www.w3.org/2000/svg" xmlns:xlink="http://www.w3.org/1999/xlink" x="0px" y="0px"
	 width="44.979px" height="44.979px" viewBox="0 0 44.979 44.979" style="enable-background:new 0 0 44.979 44.979;"
	 xml:space="preserve">
<g>
	<g>
		<path d="M28.502,17.371c-0.002,0-11.213-0.004-12.011-0.004c0,0-0.005,0-0.006,0c-1.021,0-1.853,0.846-1.85,1.867l0.04,11.565
			c0.004,1.018,0.83,1.863,1.845,1.863c0.002,0,0.005,0,0.007,0c0.574,0,1.086-0.287,1.423-0.701l0.729,11.256
			c0.064,1.006,0.9,1.762,1.909,1.762h3.804c1.008,0,1.842-0.767,1.908-1.772l0.727-11.276c0.338,0.438,0.849,0.731,1.425,0.731
			c0.002,0,0.003,0,0.007,0c1.016,0,1.841-0.86,1.848-1.871l0.037-11.544C30.347,18.235,29.522,17.371,28.502,17.371z"/>
		<circle cx="22.491" cy="11.022" r="5.115"/>
		<path d="M11.14,9.006c-0.001,0-8.809-0.003-9.435-0.003c0,0-0.004,0-0.005,0c-0.801,0-1.455,0.665-1.453,1.467l0.031,9.085
			c0.003,0.8,0.652,1.464,1.45,1.464c0.001,0,0.004,0,0.005,0c0.451,0,0.854-0.225,1.118-0.55l0.573,8.841
			c0.051,0.789,0.707,1.383,1.5,1.383h2.989c0.791,0,1.446-0.602,1.499-1.391l0.57-8.859c0.266,0.343,0.667,0.575,1.12,0.575
			c0.001,0,0.002,0,0.005,0c0.798,0,1.446-0.677,1.451-1.47l0.03-9.07C12.589,9.685,11.941,9.006,11.14,9.006z"/>
		<circle cx="6.418" cy="4.018" r="4.018"/>
	</g>
	<g>
		<path d="M33.839,9.006c0.001,0,8.809-0.003,9.436-0.003h0.004c0.802,0,1.455,0.665,1.453,1.467l-0.03,9.085
			c-0.003,0.8-0.652,1.464-1.45,1.464c-0.001,0-0.004,0-0.005,0c-0.451,0-0.854-0.225-1.118-0.55l-0.572,8.841
			c-0.052,0.789-0.707,1.383-1.5,1.383h-2.99c-0.791,0-1.445-0.602-1.498-1.391l-0.57-8.859c-0.266,0.343-0.667,0.575-1.12,0.575
			c-0.001,0-0.002,0-0.005,0c-0.799,0-1.447-0.677-1.451-1.47l-0.029-9.07C32.39,9.685,33.038,9.006,33.839,9.006z"/>
		<circle cx="38.562" cy="4.018" r="4.018"/>
	</g>
</g>
<g>
</g>
<g>
</g>
<g>
</g>
<g>
</g>
<g>
</g>
<g>
</g>
<g>
</g>
<g>
</g>
<g>
</g>
<g>
</g>
<g>
</g>
<g>
</g>
<g>
</g>
<g>
</g>
<g>
</g>
</svg>
