<?xml version="1.0" encoding="iso-8859-1"?>
<!-- Generator: Adobe Illustrator 16.0.0, SVG Export Plug-In . SVG Version: 6.00 Build 0)  -->
<!DOCTYPE svg PUBLIC "-//W3C//DTD SVG 1.1//EN" "http://www.w3.org/Graphics/SVG/1.1/DTD/svg11.dtd">
<svg version="1.1" id="Capa_1" xmlns="http://www.w3.org/2000/svg" xmlns:xlink="http://www.w3.org/1999/xlink" x="0px" y="0px"
	 width="30.09px" height="30.089px" viewBox="0 0 30.09 30.089" style="enable-background:new 0 0 30.09 30.089;"
	 xml:space="preserve">
<g>
	<g>
		<g id="Icons_1_">
			<path d="M28.75,11.658l-3.483-10.96c-0.149-0.473-0.623-0.764-1.113-0.685L18.84,0.88c-1.121,0.183-2.202,0.628-3.125,1.289
				L13.262,3.92c-0.893,0.638-1.945,0.988-3.042,1.013L5.943,5.03c0.134-0.442,0.141-0.929-0.01-1.402
				c-0.396-1.25-1.731-1.942-2.982-1.544C1.699,2.481,1.009,3.815,1.406,5.066c0.225,0.704,0.75,1.223,1.388,1.477l7.15,22.5
				c0.203,0.639,0.793,1.046,1.43,1.046c0.149,0,0.304-0.021,0.455-0.071c0.79-0.251,1.227-1.094,0.976-1.884L9.579,17.986
				l4.168-0.094c1.5-0.031,2.938-0.512,4.16-1.384l2.451-1.752c0.677-0.482,1.467-0.809,2.285-0.942l5.313-0.867
				c0.287-0.047,0.539-0.217,0.689-0.464C28.801,12.235,28.837,11.934,28.75,11.658z M13.702,15.894l-4.364,0.099L6.485,7.018
				l3.778-0.084c0.577-0.013,1.14-0.11,1.689-0.253l2.878,9.056C14.462,15.824,14.087,15.885,13.702,15.894z M16.745,14.881
				c-0.304,0.217-0.631,0.387-0.967,0.536l-2.876-9.051c0.531-0.217,1.046-0.479,1.521-0.817l2.453-1.752
				c0.122-0.087,0.251-0.163,0.38-0.239l2.866,9.02c-0.321,0.165-0.634,0.344-0.927,0.553L16.745,14.881z M22.322,11.841
				c-0.436,0.071-0.859,0.193-1.275,0.34l-2.878-9.057c0.322-0.119,0.654-0.215,0.994-0.271l4.46-0.729l2.871,9.033L22.322,11.841z"
				/>
		</g>
	</g>
</g>
<g>
</g>
<g>
</g>
<g>
</g>
<g>
</g>
<g>
</g>
<g>
</g>
<g>
</g>
<g>
</g>
<g>
</g>
<g>
</g>
<g>
</g>
<g>
</g>
<g>
</g>
<g>
</g>
<g>
</g>
</svg>
