<?xml version="1.0" encoding="iso-8859-1"?>
<!-- Generator: Adobe Illustrator 19.0.0, SVG Export Plug-In . SVG Version: 6.00 Build 0)  -->
<svg version="1.1" id="Layer_1" xmlns="http://www.w3.org/2000/svg" xmlns:xlink="http://www.w3.org/1999/xlink" x="0px" y="0px"
	 viewBox="0 0 330 330" style="enable-background:new 0 0 330 330;" xml:space="preserve">
<g id="XMLID_243_">
	<path id="XMLID_244_" d="M315,230h-35v-65c0-8.284-6.716-15-15-15h-85v-50h35c8.284,0,15-6.716,15-15V15c0-8.284-6.716-15-15-15
		H115c-8.284,0-15,6.716-15,15v70c0,8.284,6.716,15,15,15h35v50H65c-8.284,0-15,6.716-15,15v65H15c-8.284,0-15,6.716-15,15v70
		c0,8.284,6.716,15,15,15h75V230H80v-50h70v50h-30v100h90V230h-30v-50h70v50h-10v100h75c8.284,0,15-6.716,15-15v-70
		C330,236.716,323.284,230,315,230z"/>
</g>
<g>
</g>
<g>
</g>
<g>
</g>
<g>
</g>
<g>
</g>
<g>
</g>
<g>
</g>
<g>
</g>
<g>
</g>
<g>
</g>
<g>
</g>
<g>
</g>
<g>
</g>
<g>
</g>
<g>
</g>
</svg>
