<?xml version="1.0" encoding="iso-8859-1"?>
<!-- Generator: Adobe Illustrator 19.0.0, SVG Export Plug-In . SVG Version: 6.00 Build 0)  -->
<svg version="1.1" id="Layer_1" xmlns="http://www.w3.org/2000/svg" xmlns:xlink="http://www.w3.org/1999/xlink" x="0px" y="0px"
	 viewBox="0 0 512 512" style="enable-background:new 0 0 512 512;" xml:space="preserve">
<path style="fill:#8697CB;" d="M261.973,512L261.973,512c-3.413,0-5.973,0-9.387,0c-5.12,0-8.533-4.267-8.533-8.533
	c0-5.12,4.267-8.533,8.533-8.533c2.56,0,5.12,0,8.533,0c5.12,0,8.533,4.267,8.533,8.533C270.507,508.587,266.24,512,261.973,512z
	 M296.107,510.293c-4.267,0-7.68-3.413-8.533-7.68c-0.853-4.267,2.56-8.533,7.68-9.387c2.56,0,5.12-0.853,8.533-0.853
	c4.267-0.853,9.387,2.56,10.24,6.827c0.853,4.267-2.56,9.387-6.827,10.24c-2.56,0.853-5.973,0.853-8.533,1.707
	C296.96,510.293,296.107,510.293,296.107,510.293z M219.307,507.733c-0.853,0-0.853,0-1.707,0c-2.56-0.853-5.973-0.853-8.533-1.707
	c-4.267-0.853-7.68-5.973-6.827-10.24c0.853-4.267,5.973-7.68,10.24-6.827c2.56,0.853,5.12,0.853,7.68,1.707
	c4.267,0.853,7.68,5.12,6.827,10.24C226.987,505.173,223.573,507.733,219.307,507.733z M337.92,500.907
	c-3.413,0-6.827-2.56-8.533-5.973c-1.707-4.267,0.853-9.387,5.12-11.093c2.56-0.853,5.12-1.707,7.68-2.56
	c4.267-1.707,9.387,0.853,11.093,5.12s-0.853,9.387-5.12,11.093c-2.56,0.853-5.973,1.707-8.533,2.56
	C339.627,500.907,338.773,500.907,337.92,500.907z M178.347,496.64c-0.853,0-1.707,0-2.56-0.853c-2.56-0.853-5.12-1.707-8.533-3.413
	c-4.267-1.707-6.827-6.827-4.267-11.093c1.707-4.267,6.827-6.827,11.093-4.267c2.56,0.853,5.12,1.707,7.68,3.413
	c4.267,1.707,6.827,6.827,5.12,11.093C185.173,494.08,181.76,496.64,178.347,496.64z M377.173,483.84
	c-3.413,0-5.973-1.707-7.68-4.267c-2.56-4.267-0.853-9.387,3.413-11.947c2.56-1.707,5.12-2.56,6.827-4.267
	c4.267-2.56,9.387-0.853,11.947,3.413c2.56,4.267,0.853,9.387-3.413,11.947c-2.56,1.707-5.12,2.56-7.68,4.267
	C379.733,483.84,378.88,483.84,377.173,483.84z M139.093,477.867c-1.707,0-2.56,0-4.267-0.853c-2.56-1.707-5.12-3.413-7.68-4.267
	c-4.267-2.56-5.12-7.68-2.56-11.947c2.56-4.267,7.68-5.12,11.947-2.56c2.56,1.707,4.267,2.56,6.827,4.267
	c4.267,2.56,5.12,7.68,3.413,11.947C145.067,476.16,142.507,477.867,139.093,477.867z M413.013,459.947
	c-2.56,0-5.12-0.853-6.827-3.413c-2.56-3.413-2.56-9.387,0.853-11.947c2.56-1.707,4.267-3.413,5.973-5.12
	c3.413-3.413,8.533-2.56,11.947,0.853c3.413,3.413,2.56,8.533-0.853,11.947c-2.56,1.707-4.267,4.267-6.827,5.973
	C416.427,459.947,414.72,459.947,413.013,459.947z M104.107,453.12c-1.707,0-4.267-0.853-5.12-1.707
	c-2.56-1.707-4.267-4.267-6.827-5.973c-3.413-3.413-3.413-8.533-0.853-11.947c3.413-3.413,8.533-3.413,11.947-0.853
	c1.707,1.707,4.267,3.413,5.973,5.12c3.413,3.413,4.267,8.533,0.853,11.947C109.227,452.267,106.667,453.12,104.107,453.12z
	 M443.733,430.08c-1.707,0-4.267-0.853-5.973-1.707c-3.413-3.413-4.267-8.533-0.853-11.947c1.707-1.707,3.413-4.267,5.12-5.973
	c2.56-3.413,8.533-4.267,11.947-1.707c3.413,2.56,4.267,8.533,1.707,11.947c-1.707,2.56-3.413,4.267-5.973,6.827
	C448,429.227,446.293,430.08,443.733,430.08z M74.24,423.253c-2.56,0-5.12-0.853-6.827-3.413c-1.707-2.56-3.413-4.267-5.973-6.827
	c-1.707-3.413-1.707-9.387,2.56-11.947c3.413-2.56,9.387-2.56,11.947,1.707c1.707,2.56,3.413,4.267,5.12,6.827
	c3.413,3.413,2.56,9.387-0.853,11.947C78.507,422.4,75.947,423.253,74.24,423.253z M468.48,395.093c-1.707,0-2.56,0-4.267-0.853
	c-4.267-2.56-5.12-7.68-3.413-11.947c1.707-2.56,2.56-5.12,4.267-6.827c2.56-4.267,7.68-5.973,11.947-3.413s5.973,7.68,3.413,11.947
	c-1.707,2.56-2.56,5.12-4.267,7.68C474.453,394.24,471.04,395.093,468.48,395.093z M49.493,387.413c-2.56,0-5.973-1.707-7.68-4.267
	c-1.707-2.56-2.56-5.12-4.267-7.68c-2.56-4.267-0.853-9.387,3.413-11.947s9.387-0.853,11.947,3.413
	c1.707,2.56,2.56,5.12,4.267,6.827c2.56,5.12,0.853,10.24-3.413,12.8C52.907,387.413,51.2,387.413,49.493,387.413z M487.253,356.693
	c-0.853,0-1.707,0-3.413-0.853c-4.267-1.707-6.827-6.827-5.12-11.093c0.853-2.56,1.707-5.12,2.56-7.68
	c1.707-4.267,5.973-6.827,11.093-5.12c4.267,1.707,6.827,5.973,5.12,11.093c-0.853,2.56-1.707,5.973-2.56,8.533
	C493.227,354.987,490.667,356.693,487.253,356.693z M31.573,349.013c-3.413,0-6.827-2.56-7.68-5.973
	c-0.853-2.56-1.707-5.973-2.56-8.533c-1.707-4.267,0.853-9.387,5.12-11.093s9.387,0.853,11.093,5.12
	c0.853,2.56,1.707,5.12,2.56,7.68c1.707,4.267-0.853,9.387-5.12,11.093C34.133,349.013,32.427,349.013,31.573,349.013z
	 M498.347,315.733c-0.853,0-0.853,0-1.707,0c-4.267-0.853-7.68-5.12-6.827-10.24c0.853-2.56,0.853-5.12,1.707-8.533
	c0.853-4.267,5.12-7.68,9.387-6.827c4.267,0.853,7.68,5.12,6.827,9.387c-0.853,2.56-0.853,5.973-1.707,8.533
	C506.027,313.173,502.613,315.733,498.347,315.733z M20.48,307.2c-4.267,0-7.68-2.56-8.533-6.827
	c-0.853-2.56-0.853-5.973-1.707-8.533c-0.853-4.267,2.56-9.387,7.68-9.387c4.267-0.853,9.387,2.56,9.387,7.68
	c0,2.56,0.853,5.12,1.707,8.533c0.853,4.267-2.56,9.387-6.827,10.24C22.187,307.2,21.333,307.2,20.48,307.2z M503.467,273.067
	L503.467,273.067c-5.12,0-8.533-4.267-8.533-8.533c0-2.56,0-5.12,0-8.533v-0.853c0-5.12,3.413-8.533,8.533-8.533
	c5.12,0,8.533,3.413,8.533,8.533V256c0,2.56,0,5.973,0,8.533C512,269.653,507.733,273.067,503.467,273.067z M17.067,264.533
	c-5.12,0-8.533-3.413-8.533-8.533l0,0c0-2.56,0-5.12,0-8.533c0-5.12,4.267-8.533,8.533-8.533c5.12,0,8.533,4.267,8.533,8.533
	c0,2.56,0,5.12,0,7.68C25.6,261.12,22.187,264.533,17.067,264.533z M500.907,229.547c-4.267,0-7.68-3.413-8.533-7.68
	c0-2.56-0.853-5.12-0.853-8.533c-0.853-4.267,2.56-9.387,6.827-10.24c5.12-0.853,9.387,2.56,10.24,6.827
	c0.853,2.56,0.853,5.973,1.707,8.533c0.853,4.267-2.56,9.387-7.68,9.387C501.76,229.547,501.76,229.547,500.907,229.547z
	 M20.48,222.72c-0.853,0-0.853,0-1.707,0c-4.267-0.853-7.68-5.12-6.827-10.24c0.853-2.56,0.853-5.973,1.707-8.533
	c0.853-4.267,5.12-7.68,10.24-6.827c4.267,0.853,7.68,5.12,6.827,10.24c-0.853,2.56-0.853,5.12-1.707,8.533
	S24.747,222.72,20.48,222.72z M492.373,187.733c-3.413,0-6.827-2.56-8.533-5.973c-0.853-2.56-1.707-5.12-2.56-7.68
	c-1.707-4.267,0.853-9.387,5.12-11.093c4.267-1.707,9.387,0.853,11.093,5.12c0.853,2.56,1.707,5.973,2.56,8.533
	c1.707,4.267-0.853,9.387-5.973,10.24C494.08,187.733,493.227,187.733,492.373,187.733z M31.573,180.907
	c-0.853,0-1.707,0-2.56-0.853c-4.267-1.707-6.827-6.827-5.12-11.093c0.853-2.56,1.707-5.973,3.413-8.533
	c1.707-4.267,6.827-6.827,11.093-5.12s6.827,6.827,5.12,11.093c-0.853,2.56-1.707,5.12-2.56,7.68
	C38.4,178.347,34.987,180.907,31.573,180.907z M476.16,147.627c-3.413,0-5.973-1.707-7.68-5.12c-0.853-2.56-2.56-5.12-4.267-7.68
	c-2.56-4.267-0.853-9.387,3.413-11.947c4.267-2.56,9.387-0.853,11.947,3.413c1.707,2.56,2.56,5.12,4.267,7.68
	c1.707,4.267,0,9.387-3.413,11.093C478.72,147.627,477.867,147.627,476.16,147.627z M49.493,141.653c-1.707,0-2.56,0-4.267-0.853
	c-4.267-2.56-5.12-7.68-3.413-11.947c1.707-2.56,2.56-5.12,4.267-7.68c2.56-4.267,7.68-5.12,11.947-2.56
	c4.267,2.56,5.12,7.68,2.56,11.947c-1.707,2.56-2.56,5.12-4.267,6.827C55.467,140.8,52.053,141.653,49.493,141.653z
	 M453.973,111.787c-2.56,0-5.12-0.853-6.827-3.413s-3.413-4.267-5.12-6.827c-2.56-3.413-2.56-9.387,1.707-11.947
	c3.413-2.56,9.387-2.56,11.947,1.707c1.707,2.56,3.413,4.267,5.12,6.827c2.56,3.413,1.707,9.387-1.707,11.947
	C457.387,110.933,455.68,111.787,453.973,111.787z M74.24,106.667c-1.707,0-4.267-0.853-5.12-1.707
	c-3.413-3.413-4.267-8.533-0.853-11.947c1.707-2.56,3.413-4.267,5.973-6.827c3.413-3.413,8.533-4.267,11.947-0.853
	s4.267,8.533,0.853,11.947c-1.707,1.707-3.413,4.267-5.12,5.973C78.507,105.813,75.947,106.667,74.24,106.667z M424.96,79.36
	c-1.707,0-4.267-0.853-5.973-2.56c-1.707-1.707-4.267-3.413-5.973-5.12c-3.413-3.413-3.413-8.533-0.853-11.947
	c3.413-3.413,8.533-4.267,11.947-0.853c2.56,1.707,4.267,4.267,6.827,5.973c3.413,3.413,3.413,8.533,0.853,11.947
	C430.08,78.507,427.52,79.36,424.96,79.36z M104.107,75.947c-2.56,0-5.12-0.853-6.827-3.413c-3.413-3.413-2.56-9.387,0.853-11.947
	c2.56-1.707,4.267-3.413,6.827-5.973c3.413-2.56,9.387-2.56,11.947,1.707c2.56,3.413,2.56,9.387-1.707,11.947
	c-2.56,1.707-4.267,3.413-5.973,5.12C107.52,75.947,105.813,75.947,104.107,75.947z M391.68,53.76c-1.707,0-3.413-0.853-4.267-1.707
	c-2.56-1.707-4.267-2.56-6.827-4.267c-4.267-2.56-5.12-7.68-3.413-11.947c2.56-4.267,7.68-5.12,11.947-3.413
	c2.56,1.707,5.12,3.413,7.68,4.267c4.267,2.56,5.12,7.68,2.56,11.947C396.8,52.053,394.24,53.76,391.68,53.76z M139.093,51.2
	c-2.56,0-5.973-1.707-7.68-4.267c-2.56-4.267-0.853-9.387,3.413-11.947c1.707-0.853,4.267-2.56,6.827-3.413
	c4.267-2.56,9.387-0.853,11.947,2.56c2.56,4.267,0.853,9.387-3.413,11.947c-2.56,1.707-5.12,2.56-6.827,4.267
	C141.653,51.2,139.947,51.2,139.093,51.2z M353.28,34.133c-0.853,0-1.707,0-3.413-0.853c-2.56-0.853-5.12-1.707-7.68-2.56
	c-4.267-1.707-6.827-6.827-5.12-11.093s6.827-6.827,11.093-5.12c2.56,0.853,5.973,1.707,8.533,3.413
	c4.267,1.707,6.827,6.827,5.12,11.093C360.107,31.573,356.693,34.133,353.28,34.133z M177.493,33.28c-3.413,0-6.827-1.707-7.68-5.12
	c-1.707-4.267,0.853-9.387,5.12-11.093c2.56-0.853,5.973-1.707,8.533-3.413c4.267-1.707,9.387,0.853,11.093,5.12
	c1.707,4.267-0.853,9.387-5.12,11.093c-2.56,0.853-5.12,1.707-7.68,2.56C179.2,32.427,178.347,33.28,177.493,33.28z M312.32,21.333
	c-0.853,0-0.853,0-1.707,0c-2.56-0.853-5.12-0.853-8.533-1.707c-4.267-0.853-7.68-5.12-6.827-9.387s5.12-7.68,9.387-6.827
	c2.56,0.853,5.973,0.853,8.533,1.707c4.267,0.853,7.68,5.12,6.827,10.24C320,18.773,315.733,21.333,312.32,21.333z M218.453,21.333
	c-4.267,0-7.68-2.56-8.533-6.827s2.56-9.387,6.827-10.24c2.56-0.853,5.973-0.853,8.533-1.707c4.267-0.853,9.387,2.56,9.387,6.827
	c0.853,4.267-2.56,9.387-6.827,9.387c-2.56,0-5.12,0.853-8.533,1.707C219.307,21.333,219.307,21.333,218.453,21.333z
	 M269.653,17.067L269.653,17.067c-1.707,0-3.413,0-5.12,0h-3.413c-5.12,0-8.533-3.413-8.533-8.533S256,0,261.12,0h3.413
	c1.707,0,3.413,0,5.12,0c5.12,0,8.533,4.267,8.533,8.533C278.187,13.653,273.92,17.067,269.653,17.067z"/>
<path style="fill:#2F191E;" d="M256,512L256,512c-3.413,0-5.973,0-8.533,0c-5.12,0-8.533-4.267-8.533-8.533
	c0-5.12,4.267-8.533,8.533-8.533c2.56,0,5.12,0,8.533,0h0.853c5.12,0,8.533,3.413,8.533,8.533C265.387,508.587,261.12,512,256,512z
	 M290.987,509.44c-4.267,0-7.68-3.413-8.533-7.68c-0.853-4.267,2.56-9.387,7.68-9.387c2.56,0,5.12-0.853,8.533-1.707
	c4.267-0.853,9.387,2.56,10.24,6.827s-2.56,9.387-6.827,10.24c-2.56,0.853-5.973,0.853-8.533,1.707
	C291.84,509.44,290.987,509.44,290.987,509.44z M213.333,508.587c-0.853,0-0.853,0-1.707,0c-2.56-0.853-5.973-0.853-8.533-1.707
	c-4.267-0.853-7.68-5.12-6.827-10.24c0.853-4.267,5.12-7.68,10.24-6.827c2.56,0.853,5.12,0.853,8.533,1.707
	c4.267,0.853,7.68,5.12,6.827,10.24C221.013,505.173,217.6,508.587,213.333,508.587z M332.8,500.053
	c-3.413,0-6.827-2.56-8.533-5.973c-1.707-4.267,0.853-9.387,5.12-11.093c2.56-0.853,5.12-1.707,7.68-2.56
	c4.267-1.707,9.387,0.853,11.093,5.12c1.707,4.267-0.853,9.387-5.12,11.093c-2.56,0.853-5.973,1.707-8.533,2.56
	C334.507,500.053,333.653,500.053,332.8,500.053z M171.52,497.493c-0.853,0-1.707,0-2.56-0.853c-2.56-0.853-5.973-1.707-8.533-3.413
	c-4.267-1.707-6.827-6.827-5.12-11.093c1.707-4.267,6.827-6.827,11.093-5.12c2.56,0.853,5.12,1.707,7.68,2.56
	c4.267,1.707,6.827,6.827,5.12,11.093C178.347,494.933,174.933,497.493,171.52,497.493z M372.053,482.987
	c-3.413,0-5.973-1.707-7.68-4.267c-2.56-4.267-0.853-9.387,3.413-11.947c2.56-1.707,5.12-2.56,6.827-4.267
	c4.267-2.56,9.387-0.853,11.947,3.413c2.56,4.267,0.853,9.387-3.413,11.947c-2.56,1.707-5.12,2.56-7.68,4.267
	C374.613,482.987,373.76,482.987,372.053,482.987z M132.267,478.72c-1.707,0-2.56,0-4.267-0.853c-2.56-1.707-5.12-3.413-7.68-4.267
	c-4.267-2.56-5.12-7.68-2.56-11.947c2.56-4.267,7.68-5.12,11.947-2.56c2.56,1.707,5.12,2.56,6.827,4.267
	c4.267,2.56,5.12,7.68,3.413,11.947C138.24,477.867,135.68,478.72,132.267,478.72z M408.747,459.093c-2.56,0-5.12-0.853-6.827-3.413
	c-2.56-3.413-2.56-9.387,1.707-11.947c2.56-1.707,4.267-3.413,6.827-5.12c3.413-3.413,9.387-2.56,11.947,0.853
	c2.56,3.413,2.56,9.387-0.853,11.947c-2.56,1.707-4.267,3.413-6.827,5.973C412.16,459.093,410.453,459.093,408.747,459.093z
	 M97.28,453.973c-1.707,0-4.267-0.853-5.12-1.707c-2.56-1.707-4.267-4.267-6.827-5.973c-3.413-3.413-3.413-8.533-0.853-11.947
	c3.413-3.413,8.533-3.413,11.947-0.853c1.707,1.707,4.267,3.413,5.973,5.12c3.413,3.413,4.267,8.533,0.853,11.947
	C101.547,453.12,99.84,453.973,97.28,453.973z M440.32,430.08c-1.707,0-4.267-0.853-5.973-2.56
	c-3.413-3.413-3.413-8.533-0.853-11.947c1.707-1.707,3.413-4.267,5.12-5.973c3.413-3.413,8.533-4.267,11.947-0.853
	c3.413,3.413,4.267,8.533,0.853,11.947c-1.707,2.56-4.267,4.267-5.973,6.827C444.587,429.227,442.027,430.08,440.32,430.08z
	 M66.56,424.107c-2.56,0-5.12-0.853-6.827-3.413c-1.707-2.56-3.413-4.267-5.973-6.827c-2.56-3.413-2.56-9.387,1.707-11.947
	c4.267-2.56,9.387-2.56,12.8,1.707c1.707,2.56,3.413,4.267,5.12,6.827c3.413,3.413,2.56,9.387-0.853,11.947
	C70.827,423.253,68.267,424.107,66.56,424.107z M465.92,395.947c-1.707,0-3.413,0-4.267-1.707c-4.267-2.56-5.12-7.68-2.56-11.947
	c1.707-2.56,2.56-5.12,4.267-6.827c2.56-4.267,7.68-5.12,11.947-3.413c4.267,2.56,5.12,7.68,3.413,11.947
	c-1.707,2.56-3.413,5.12-4.267,7.68C471.893,394.24,468.48,395.947,465.92,395.947z M41.813,388.267c-2.56,0-5.973-1.707-7.68-4.267
	s-2.56-5.12-4.267-7.68c-2.56-4.267-0.853-9.387,3.413-11.947c4.267-2.56,9.387-0.853,11.947,3.413c1.707,2.56,2.56,5.12,4.267,7.68
	c2.56,4.267,0.853,9.387-3.413,11.947C44.373,388.267,43.52,388.267,41.813,388.267z M485.547,357.547c-0.853,0-2.56,0-3.413-0.853
	c-4.267-1.707-5.973-6.827-4.267-11.093c0.853-2.56,1.707-5.12,3.413-7.68c1.707-4.267,6.827-6.827,11.093-5.12
	c4.267,1.707,6.827,6.827,5.12,11.093c-0.853,2.56-1.707,5.973-3.413,8.533C492.373,354.987,488.96,357.547,485.547,357.547z
	 M23.893,349.867c-3.413,0-6.827-2.56-7.68-5.973c-0.853-2.56-1.707-5.973-2.56-8.533c-1.707-4.267,0.853-9.387,5.12-11.093
	c4.267-1.707,9.387,0.853,11.093,5.12c0.853,2.56,1.707,5.12,2.56,7.68c1.707,4.267-0.853,9.387-5.12,11.093
	C25.6,349.013,24.747,349.867,23.893,349.867z M498.347,315.733c-0.853,0-0.853,0-1.707,0c-4.267-0.853-7.68-5.12-6.827-10.24
	c0.853-2.56,0.853-5.12,1.707-8.533c0.853-4.267,5.12-7.68,10.24-6.827c4.267,0.853,7.68,5.12,6.827,10.24
	c-0.853,2.56-0.853,5.973-1.707,8.533C506.027,313.173,501.76,315.733,498.347,315.733z M11.947,308.053
	c-4.267,0-7.68-2.56-8.533-6.827c-0.853-2.56-0.853-5.973-1.707-8.533c-0.853-4.267,2.56-9.387,7.68-9.387
	c4.267-0.853,9.387,2.56,9.387,7.68c0,2.56,0.853,5.12,1.707,8.533c0.853,4.267-2.56,9.387-6.827,10.24
	C13.653,308.053,12.8,308.053,11.947,308.053z M503.467,273.067L503.467,273.067c-5.12,0-8.533-4.267-8.533-8.533
	c0-2.56,0-5.12,0-8.533v-0.853c0-5.12,3.413-8.533,8.533-8.533c5.12,0,8.533,3.413,8.533,8.533V256c0,3.413,0,5.973,0,8.533
	C512,269.653,507.733,273.067,503.467,273.067z M8.533,264.533C3.413,264.533,0,261.12,0,256l0,0c0-2.56,0-5.12,0-8.533
	c0-5.12,4.267-8.533,8.533-8.533c5.12,0,8.533,4.267,8.533,8.533c0,2.56,0,5.12,0,7.68C17.067,261.12,13.653,264.533,8.533,264.533z
	 M500.907,229.547c-4.267,0-7.68-3.413-8.533-7.68c0-2.56-0.853-5.12-1.707-8.533c-0.853-4.267,2.56-9.387,6.827-10.24
	s9.387,2.56,10.24,6.827c0.853,2.56,0.853,5.973,1.707,8.533c0.853,4.267-2.56,9.387-6.827,9.387
	C501.76,229.547,501.76,229.547,500.907,229.547z M11.947,221.867c-0.853,0-0.853,0-1.707,0c-4.267-0.853-7.68-5.12-6.827-10.24
	c0.853-2.56,0.853-5.973,1.707-8.533c0.853-4.267,5.12-7.68,10.24-6.827c4.267,0.853,7.68,5.12,6.827,10.24
	c-0.853,2.56-0.853,5.12-1.707,8.533C19.627,219.307,16.213,221.867,11.947,221.867z M491.52,186.88
	c-3.413,0-6.827-2.56-8.533-5.973c-0.853-2.56-1.707-5.12-2.56-7.68c-1.707-4.267,0.853-9.387,5.12-11.093
	c4.267-1.707,9.387,0.853,11.093,5.12c0.853,2.56,1.707,5.973,2.56,8.533c1.707,4.267-0.853,9.387-5.12,11.093
	C493.227,186.88,492.373,186.88,491.52,186.88z M23.04,180.053c-0.853,0-1.707,0-2.56-0.853c-4.267-1.707-6.827-6.827-5.12-11.093
	c0.853-2.56,1.707-5.973,3.413-8.533c1.707-4.267,6.827-6.827,11.093-5.12c4.267,3.413,5.973,7.68,4.267,12.8
	c-0.853,2.56-1.707,5.12-2.56,7.68C29.867,178.347,26.453,180.053,23.04,180.053z M474.453,147.627c-3.413,0-5.973-1.707-7.68-4.267
	c-1.707-2.56-2.56-5.12-4.267-7.68c-2.56-4.267-0.853-9.387,3.413-11.947s9.387-0.853,11.947,3.413c1.707,2.56,2.56,5.12,4.267,7.68
	c2.56,4.267,0.853,9.387-3.413,11.947C477.013,147.627,475.307,147.627,474.453,147.627z M41.813,140.8c-1.707,0-2.56,0-4.267-0.853
	c-4.267-2.56-5.973-7.68-3.413-11.947c1.707-2.56,3.413-5.12,4.267-7.68c2.56-4.267,7.68-5.12,11.947-2.56
	c4.267,2.56,5.12,7.68,2.56,11.947c-1.707,2.56-2.56,5.12-4.267,6.827C46.933,139.947,44.373,140.8,41.813,140.8z M450.56,111.787
	c-2.56,0-5.12-0.853-6.827-3.413c-1.707-2.56-3.413-4.267-5.12-6.827c-3.413-3.413-2.56-9.387,0.853-11.947
	c3.413-3.413,9.387-2.56,11.947,0.853c1.707,2.56,3.413,4.267,5.973,6.827c2.56,3.413,2.56,9.387-1.707,11.947
	C453.973,110.933,452.267,111.787,450.56,111.787z M65.707,105.813c-1.707,0-4.267-0.853-5.12-1.707
	c-3.413-3.413-4.267-8.533-0.853-11.947c1.707-2.56,4.267-4.267,5.973-6.827c3.413-3.413,8.533-3.413,11.947-0.853
	c3.413,3.413,3.413,8.533,0.853,11.947c-1.707,1.707-3.413,4.267-5.12,5.973C70.827,104.96,68.267,105.813,65.707,105.813z
	 M420.693,80.213c-1.707,0-4.267-0.853-5.973-2.56c-1.707-1.707-4.267-3.413-5.973-5.12c-3.413-3.413-4.267-8.533-0.853-11.947
	c3.413-3.413,8.533-4.267,11.947-0.853c2.56,1.707,4.267,4.267,6.827,5.973c3.413,3.413,3.413,8.533,0.853,11.947
	C425.813,79.36,423.253,80.213,420.693,80.213z M96.427,75.093c-2.56,0-5.12-0.853-6.827-3.413
	c-3.413-3.413-2.56-9.387,0.853-11.947c2.56-1.707,4.267-3.413,6.827-5.973c3.413-2.56,9.387-2.56,11.947,1.707
	c3.413,4.267,2.56,9.387-0.853,12.8c-2.56,1.707-4.267,3.413-6.827,5.12C100.693,74.24,98.133,75.093,96.427,75.093z M386.56,54.613
	c-1.707,0-3.413,0-4.267-1.707c-2.56-1.707-5.12-2.56-6.827-4.267c-4.267-2.56-5.12-7.68-3.413-11.947s7.68-5.12,11.947-3.413
	c2.56,1.707,5.12,3.413,7.68,4.267c4.267,2.56,5.12,7.68,2.56,11.947C392.533,52.907,389.12,54.613,386.56,54.613z M131.413,50.347
	c-2.56,0-5.973-1.707-7.68-4.267c-2.56-4.267-0.853-9.387,3.413-11.947c2.56-1.707,5.12-2.56,7.68-4.267
	c4.267-2.56,9.387-0.853,11.947,3.413s0.853,9.387-3.413,11.947c-2.56,1.707-5.12,2.56-7.68,4.267
	C134.827,50.347,133.12,50.347,131.413,50.347z M348.16,34.987c-0.853,0-1.707,0-3.413-0.853c-2.56-0.853-5.12-1.707-7.68-2.56
	c-4.267-1.707-6.827-6.827-5.12-11.093c1.707-4.267,6.827-6.827,11.093-5.12c2.56,0.853,5.973,1.707,8.533,3.413
	c4.267,1.707,6.827,6.827,5.12,11.093C354.987,32.427,351.573,34.987,348.16,34.987z M170.667,32.427
	c-3.413,0-6.827-2.56-7.68-5.973c-1.707-4.267,0.853-9.387,5.12-11.093c2.56-0.853,5.973-1.707,8.533-2.56
	c4.267-1.707,9.387,0.853,11.093,5.12c1.707,4.267-0.853,9.387-5.12,11.093c-2.56,0.853-5.12,1.707-7.68,2.56
	C172.373,31.573,171.52,32.427,170.667,32.427z M306.347,22.187c-0.853,0-0.853,0-1.707,0c-2.56-0.853-5.12-0.853-8.533-1.707
	c-4.267-0.853-7.68-5.12-6.827-10.24c0.853-4.267,5.12-7.68,10.24-6.827c2.56,0.853,5.973,0.853,8.533,1.707
	c4.267,0.853,7.68,5.12,6.827,10.24C314.027,19.627,310.613,22.187,306.347,22.187z M212.48,20.48c-4.267,0-7.68-2.56-8.533-6.827
	c-0.853-4.267,2.56-9.387,6.827-10.24c2.56-0.853,5.973-0.853,8.533-1.707c4.267-0.853,9.387,2.56,9.387,7.68
	c1.707,5.12-1.707,9.387-6.827,10.24c-2.56,0-5.12,0.853-8.533,1.707C213.333,20.48,212.48,20.48,212.48,20.48z M263.68,17.067
	L263.68,17.067c-2.56,0-5.12,0-7.68,0c-5.12,0-8.533-3.413-8.533-8.533S250.88,0,256,0l0,0c2.56,0,5.12,0,8.533,0
	c5.12,0,8.533,4.267,8.533,8.533C272.213,13.653,268.8,17.067,263.68,17.067z"/>
<g>
</g>
<g>
</g>
<g>
</g>
<g>
</g>
<g>
</g>
<g>
</g>
<g>
</g>
<g>
</g>
<g>
</g>
<g>
</g>
<g>
</g>
<g>
</g>
<g>
</g>
<g>
</g>
<g>
</g>
</svg>
